<?xml version="1.0" encoding="utf-8"?>
<!-- Generator: Adobe Illustrator 21.0.2, SVG Export Plug-In . SVG Version: 6.00 Build 0)  -->
<svg version="1.1" xmlns="http://www.w3.org/2000/svg" xmlns:xlink="http://www.w3.org/1999/xlink" x="0px" y="0px"
	 viewBox="0 0 108 108" enable-background="new 0 0 108 108" xml:space="preserve">
<g id="background">
	<rect id="bounding_box_1_" x="0" y="0" fill="none" width="108" height="108"/>
	<rect id="BG_color" fill="#FFFFFF" width="108" height="108"/>
</g>
<g id="foreground">
	<g id="art_layer">
		<circle id="XMLID_4814_" fill="#FF0000" cx="54" cy="54" r="22"/>
		<path fill="#FFFFFF" d="M54,42.6c6.29,0,11.4,5.12,11.4,11.4S60.29,65.4,54,65.4S42.6,60.29,42.6,54S47.71,42.6,54,42.6 M54,41
			c-7.18,0-13,5.82-13,13c0,7.18,5.82,13,13,13s13-5.82,13-13C67,46.82,61.18,41,54,41L54,41z"/>
		<polygon fill="#FFFFFF" points="50,60.5 61.25,54 50,47.5 		"/>
	</g>
	<g>
	</g>
	<g>
	</g>
</g>
</svg>
