<?xml version="1.0" encoding="UTF-8" standalone="no"?>
<!-- Generator: Adobe Illustrator 28.0.0, SVG Export Plug-In . SVG Version: 6.00 Build 0)  -->

<svg
   version="1.1"
   id="レイヤー_1"
   x="0px"
   y="0px"
   viewBox="0 0 64 64"
   xml:space="preserve"
   sodipodi:docname="logo.svg"
   width="64"
   height="64"
   inkscape:version="1.3.2 (091e20e, 2023-11-25)"
   xmlns:inkscape="http://www.inkscape.org/namespaces/inkscape"
   xmlns:sodipodi="http://sodipodi.sourceforge.net/DTD/sodipodi-0.dtd"
   xmlns="http://www.w3.org/2000/svg"
   xmlns:svg="http://www.w3.org/2000/svg"><defs
   id="defs1" /><sodipodi:namedview
   id="namedview1"
   pagecolor="#ffffff"
   bordercolor="#666666"
   borderopacity="1.0"
   inkscape:showpageshadow="2"
   inkscape:pageopacity="0.0"
   inkscape:pagecheckerboard="true"
   inkscape:deskcolor="#d1d1d1"
   inkscape:zoom="11.538461"
   inkscape:cx="2.7733334"
   inkscape:cy="25.436668"
   inkscape:window-width="1480"
   inkscape:window-height="888"
   inkscape:window-x="0"
   inkscape:window-y="59"
   inkscape:window-maximized="0"
   inkscape:current-layer="グループ_23-1" />
<style
   type="text/css"
   id="style1">
	.st0{fill:#231815;}
	.st1{fill:#E92322;}
</style>

<g
   id="グループ_23-1"
   transform="translate(1.3669638,3.1828818)">
	
	
	
	
	
	
	
	
	
	
	
	
	
	
	
	
	
	
	
	
	
	
	
	
	
	
	
	
	
	
	
	
	
	
	
	
	
	
	
	
	
	
	
	
	
	
<path
   style="fill:#ffffff;fill-opacity:1;fill-rule:evenodd;stroke:#ff3232;stroke-width:0;stroke-linecap:round;stroke-linejoin:round;paint-order:markers stroke fill"
   d="m 10.17189,19.262717 c -0.9547004,0.01712 -1.9802672,0.538071 -2.2775994,1.499137 -0.3338223,0.853189 -0.1422894,1.886041 0.5381083,2.515308 0.6684153,0.724311 1.7297911,1.080428 2.6870381,0.79066 0.343715,-0.0367 0.73549,-0.302737 0.616308,-0.696213 -0.06206,-0.303049 -0.208201,-0.579269 -0.304026,-0.871719 0.416372,0.04876 0.968008,0.306313 1.275627,-0.119348 0.196088,-0.486854 0.07196,-1.060475 -0.134738,-1.528285 -0.450016,-0.885456 -1.371139,-1.618516 -2.400718,-1.58954 z"
   id="path2"
   transform="translate(-1.3669638,-3.1828818)" /><path
   style="fill:#ffffff;fill-opacity:1;fill-rule:evenodd;stroke:#ff3232;stroke-width:0;stroke-linecap:round;stroke-linejoin:round;paint-order:markers stroke fill"
   d="m 52.792253,17.996467 c -1.03242,0.0028 -1.939936,0.749647 -2.363211,1.655278 -0.164574,0.454297 -0.314285,0.993874 -0.121081,1.458572 0.295134,0.42135 0.90393,0.136613 1.287144,0.131069 -0.09639,0.39314 -0.465063,0.801966 -0.267845,1.214781 0.448999,0.509055 1.219703,0.43965 1.82984,0.364082 0.929266,-0.181493 1.767328,-0.903832 2.04219,-1.816234 0.278013,-1.023473 -0.132684,-2.296627 -1.161578,-2.72788 -0.387077,-0.18426 -0.816211,-0.284652 -1.245459,-0.279668 z"
   id="path3"
   transform="translate(-1.3669638,-3.1828818)" /><g
   id="g99"
   transform="translate(0,-3.5202567)"><g
     id="g55"
     transform="translate(0,4)"><path
       id="パス_780-2"
       class="st1"
       d="m 49.61,32.97 c 0,0 1.35,-1.46 1.77,-1.85 0.34,-0.33 0.7,-0.64 1.08,-0.93 0.14,-0.11 0.33,-0.11 0.47,0 0.63,0.6 1.15,1.3 1.54,2.07 0.37,0.84 0.59,1.74 0.64,2.66 0,0.13 -0.45,0.28 -0.45,0.28 0,0 0.21,-0.43 -0.33,-2.21 -0.33,-0.87 -0.84,-1.66 -1.5,-2.32 -0.07,-0.09 -0.21,-0.11 -0.3,-0.04 0,0 0,0 0,0 v 0 c -0.44,0.34 -0.86,0.72 -1.24,1.12 l -1.31,1.42 z"
       style="fill:#e92322" /><path
       id="パス_781-0"
       class="st1"
       d="m 48.29,35.18 c 0,0 0,0.06 0.04,0.04 0.48,-0.15 0.89,-0.46 1.16,-0.88 0.09,-0.14 0.19,-0.06 0.14,0.06 -0.28,0.53 -0.77,0.93 -1.35,1.11 -0.03,0.01 -0.05,0.04 -0.06,0.07 -0.06,0.21 0.07,-0.4 0.07,-0.4 z"
       style="fill:#e92322" /><path
       id="パス_782-7"
       class="st1"
       d="m 30.67,42.2 c 0,0.18 -0.14,0.32 -0.32,0.32 0,0 0,0 0,0 v 0 c -0.18,0.04 -0.35,-0.08 -0.38,-0.26 0,0 0,0 0,0 -0.03,-0.18 0.08,-0.35 0.26,-0.38 0.04,-0.01 0.08,-0.01 0.13,0 0.16,-0.01 0.31,0.14 0.31,0.32 0,-0.01 0,0 0,0 z"
       style="fill:#e92322" /><path
       id="パス_783-4"
       class="st1"
       d="m 24.46,46.2 c 0.17,0.05 0.26,0.23 0.21,0.39 0,0 0,0 0,0 v 0.01 c -0.05,0.18 -0.24,0.28 -0.42,0.22 0,0 0,0 0,0 -0.18,-0.05 -0.28,-0.24 -0.22,-0.42 0,0 0,0 0,0 0.05,-0.17 0.23,-0.27 0.4,-0.22 0.01,0 0.02,0.01 0.03,0.02 z"
       style="fill:#e92322" /><path
       id="パス_784-8"
       class="st1"
       d="m 26.4,53.28 c 0.1,-0.14 0.3,-0.18 0.45,-0.08 v 0 c 0.15,0.1 0.18,0.3 0.08,0.45 0,0 0,0 0,0 -0.1,0.15 -0.3,0.18 -0.45,0.08 0,0 0,0 0,0 -0.15,-0.1 -0.19,-0.3 -0.08,-0.45 -0.01,0 -0.01,0 0,0 z"
       style="fill:#e92322" /><path
       id="パス_785-5"
       class="st1"
       d="m 33.7,53.65 c -0.11,-0.15 -0.07,-0.35 0.07,-0.46 0.15,-0.1 0.35,-0.07 0.46,0.07 0.09,0.15 0.05,0.35 -0.11,0.45 -0.14,0.09 -0.31,0.06 -0.42,-0.06 z"
       style="fill:#e92322" /><path
       id="パス_786-8"
       class="st1"
       d="m 36.33,46.82 c -0.17,0.06 -0.35,-0.04 -0.4,-0.2 v 0 c -0.05,-0.17 0.04,-0.35 0.21,-0.41 0.17,-0.05 0.35,0.04 0.41,0.21 0.05,0.16 -0.04,0.34 -0.22,0.4 0.01,0 0.01,0 0,0 z"
       style="fill:#e92322" /><path
       id="パス_787-3"
       class="st1"
       d="m 34.19,46.16 c -0.17,0.05 -0.35,-0.04 -0.4,-0.21 -0.05,-0.17 0.04,-0.35 0.21,-0.4 0.17,-0.05 0.35,0.04 0.4,0.21 v 0 c 0.05,0.16 -0.04,0.34 -0.21,0.4 z"
       style="fill:#e92322" /><path
       id="パス_788-0"
       class="st1"
       d="M 33.1,45.04 C 32.93,45.1 32.74,45 32.69,44.83 c 0,0 0,0 0,0 -0.05,-0.17 0.04,-0.35 0.2,-0.4 v 0 c 0.18,-0.06 0.36,0.04 0.42,0.22 0.06,0.18 -0.04,0.37 -0.22,0.42 z"
       style="fill:#e92322" /><path
       id="パス_789-6"
       class="st1"
       d="m 31.68,44.36 c -0.18,0.06 -0.37,-0.04 -0.42,-0.22 0,0 0,0 0,0 -0.06,-0.18 0.04,-0.37 0.22,-0.42 0,0 0,0 0,0 0.17,-0.06 0.35,0.03 0.41,0.2 v 0.01 c 0.07,0.16 0,0.34 -0.16,0.42 -0.02,-0.01 -0.04,0 -0.05,0.01 z"
       style="fill:#e92322" /><path
       id="パス_790-2"
       class="st1"
       d="m 35.67,46.68 c 0,-0.09 -0.14,-0.1 -0.14,-0.1 -0.04,-0.01 -0.08,-0.01 -0.12,0 l -4.25,1.39 c -0.04,0.01 -0.08,0.01 -0.12,0 l -0.47,-0.35 c -0.03,-0.02 -0.06,-0.06 -0.06,-0.1 v -4.49 c 0.01,-0.04 0.01,-0.08 0,-0.12 0,0 -0.05,-0.11 -0.14,-0.11 -0.09,0 -0.14,0.11 -0.14,0.11 -0.01,0.04 -0.01,0.08 0,0.12 v 4.49 c 0,0.04 -0.02,0.08 -0.06,0.1 l -0.49,0.36 c -0.04,0.01 -0.08,0.01 -0.12,0 L 25.28,46.6 h -0.12 c 0,0 -0.12,0 -0.14,0.1 -0.01,0.06 0.01,0.13 0.06,0.17 l 0.11,0.06 4.21,1.4 h 0.06 v 0.06 l 0.18,0.56 c 0.02,0.03 0.02,0.08 0,0.11 l -2.61,3.63 c -0.02,0.04 -0.04,0.07 -0.05,0.12 0,0.06 0.02,0.12 0.05,0.17 0.05,0.05 0.18,0 0.18,0 0.04,-0.02 0.07,-0.05 0.09,-0.08 l 2.63,-3.59 c 0.02,-0.04 0.06,-0.07 0.1,-0.08 h 0.64 c 0.04,0 0.08,0.02 0.1,0.06 l 2.62,3.56 c 0.02,0.03 0.05,0.06 0.09,0.08 0,0 0.11,0.06 0.18,0 0.05,-0.04 0.07,-0.11 0.05,-0.17 -0.01,-0.04 -0.03,-0.08 -0.05,-0.12 L 31.1,49.05 c -0.02,-0.04 -0.02,-0.08 0,-0.12 l 0.19,-0.6 c 0.02,-0.04 0.05,-0.06 0.08,-0.08 l 4.2,-1.39 c 0.04,-0.02 0.08,-0.04 0.11,-0.06 0.02,-0.02 0.02,-0.07 -0.01,-0.12 z m -5.39,1.18 c 0.03,-0.02 0.07,-0.02 0.1,0 l 0.48,0.35 c 0.03,0.02 0.05,0.06 0.03,0.1 l -0.18,0.56 c -0.01,0.03 -0.05,0.06 -0.08,0.06 h -0.6 c -0.04,0 -0.07,-0.02 -0.08,-0.06 l -0.19,-0.56 c -0.02,-0.03 -0.02,-0.07 0,-0.1 z"
       style="fill:#e92322" /><path
       id="パス_791-2"
       class="st1"
       d="m 30.97,46.68 c -0.02,0.06 -0.08,0.1 -0.14,0.08 v 0 c -0.06,-0.02 -0.1,-0.08 -0.08,-0.14 l 0.38,-1.28 c 0.01,-0.05 0.07,-0.09 0.12,-0.08 0,0 0,0 0,0 h 0.01 v 0 c 0.05,0.03 0.07,0.08 0.05,0.13 z"
       style="fill:#e92322" /><path
       id="パス_792-5"
       class="st1"
       d="m 31.54,46.97 c -0.04,0.05 -0.12,0.05 -0.16,0 v 0 0 c -0.04,-0.05 -0.04,-0.12 0,-0.17 l 0.77,-1.08 c 0.04,-0.04 0.11,-0.04 0.15,0 v 0 c 0.04,0.04 0.04,0.1 0.01,0.14 0,0 0,0 0,0 l -0.01,0.01 z"
       style="fill:#e92322" /><path
       id="パス_793-2"
       class="st1"
       d="m 31.95,47.47 c -0.05,0.04 -0.12,0.04 -0.17,0 v 0 c -0.05,-0.04 -0.05,-0.12 0,-0.16 0,0 0,0 0,0 v 0 l 1.11,-0.74 c 0.04,-0.04 0.11,-0.04 0.15,0 v 0 c 0.03,0.05 0.02,0.11 -0.03,0.14 0,0 0,0 0,0 v 0 z"
       style="fill:#e92322" /><path
       id="パス_794-2"
       class="st1"
       d="m 29.33,44.05 c 0,0.18 -0.14,0.32 -0.32,0.32 0,0 0,0 0,0 v 0 c -0.18,0.04 -0.35,-0.08 -0.38,-0.26 0,0 0,0 0,0 -0.03,-0.18 0.08,-0.35 0.26,-0.38 0.04,-0.01 0.08,-0.01 0.13,0 0.17,0 0.31,0.14 0.31,0.32 z"
       style="fill:#e92322" /><path
       id="パス_795-7"
       class="st1"
       d="m 27.94,44.76 c -0.04,0.18 -0.21,0.29 -0.38,0.26 0,0 0,0 0,0 -0.18,-0.04 -0.29,-0.21 -0.26,-0.38 0,0 0,0 0,0 0.04,-0.18 0.21,-0.29 0.38,-0.26 0,0 0,0 0,0 0.04,0.01 0.08,0.02 0.12,0.05 0.11,0.07 0.16,0.2 0.14,0.33 z"
       style="fill:#e92322" /><path
       id="パス_796-1"
       class="st1"
       d="m 26.85,45.88 c 0,0.18 -0.15,0.32 -0.33,0.32 0,0 0,0 0,0 -0.18,0 -0.32,-0.15 -0.32,-0.33 0,-0.18 0.15,-0.32 0.33,-0.32 0.04,0 0.08,0.01 0.12,0.03 0.13,0.05 0.21,0.17 0.2,0.3 z"
       style="fill:#e92322" /><path
       id="パス_797-5"
       class="st1"
       d="m 28.81,47.26 c 0.04,0.05 0.04,0.12 0,0.17 v 0 c -0.04,0.05 -0.12,0.05 -0.16,0 v 0 l -1.07,-0.74 c -0.04,-0.04 -0.04,-0.1 0,-0.14 v 0 c 0.04,-0.04 0.1,-0.04 0.14,0 z"
       style="fill:#e92322" /><path
       id="パス_798-2"
       class="st1"
       d="m 29.29,46.82 c 0.04,0.05 0.04,0.12 0,0.17 v 0 c -0.04,0.05 -0.12,0.05 -0.16,0 v 0 l -0.8,-1.07 c -0.04,-0.04 -0.04,-0.11 0,-0.15 0,0 0,0 0,0 v 0 c 0.04,-0.04 0.11,-0.04 0.15,0 z"
       style="fill:#e92322" /><path
       id="パス_799-1"
       class="st1"
       d="m 29.89,46.57 c 0.02,0.07 -0.02,0.13 -0.08,0.15 v 0 C 29.75,46.73 29.69,46.7 29.67,46.64 L 29.3,45.36 c -0.02,-0.06 0.02,-0.12 0.08,-0.13 v 0 c 0.05,-0.02 0.11,0.01 0.13,0.06 v 0.01 z"
       style="fill:#e92322" /><path
       id="パス_800-1"
       class="st1"
       d="m 25.87,48.02 c 0.18,0.05 0.28,0.24 0.22,0.42 0,0 0,0 0,0 -0.05,0.18 -0.24,0.28 -0.42,0.22 0,0 0,0 0,0 -0.17,-0.05 -0.26,-0.23 -0.21,-0.4 0,0 0,0 0,0 v -0.01 c 0.04,-0.17 0.2,-0.28 0.37,-0.24 0,0 0,0 0,0 z"
       style="fill:#e92322" /><path
       id="パス_801-0"
       class="st1"
       d="m 26.1,49.56 c 0.18,0.06 0.27,0.25 0.22,0.42 -0.06,0.18 -0.24,0.27 -0.42,0.22 0,0 0,0 0,0 -0.18,-0.06 -0.27,-0.25 -0.22,-0.42 v 0 c 0.05,-0.18 0.24,-0.28 0.42,-0.22 z"
       style="fill:#e92322" /><path
       id="パス_802-1"
       class="st1"
       d="m 26.82,50.95 c 0.17,0.05 0.26,0.23 0.21,0.4 0,0 0,0 0,0 v 0.01 c -0.05,0.17 -0.23,0.26 -0.39,0.21 h -0.01 c -0.18,-0.05 -0.28,-0.24 -0.22,-0.42 0,0 0,0 0,0 0.05,-0.18 0.24,-0.28 0.42,-0.22 0,0 0,0 0,0 v 0 z"
       style="fill:#e92322" /><path
       id="パス_803-8"
       class="st1"
       d="m 28.74,49.51 c 0.04,-0.05 0.12,-0.05 0.16,0 v 0 0 c 0.05,0.04 0.05,0.12 0,0.16 v 0 l -1.06,0.85 c -0.04,0.04 -0.11,0.04 -0.15,0 v 0 c -0.04,-0.04 -0.04,-0.11 0,-0.15 0,0 0,0 0,0 z"
       style="fill:#e92322" /><path
       id="パス_804-7"
       class="st1"
       d="m 28.49,48.91 c 0.06,-0.02 0.13,0.01 0.15,0.07 0,0 0,0 0,0 v 0 c 0.02,0.06 -0.01,0.13 -0.08,0.14 0,0 0,0 0,0 v 0 l -1.28,0.42 c -0.06,0.02 -0.12,0 -0.14,-0.06 0,0 0,0 0,0 v 0 0 c -0.02,-0.06 0.01,-0.12 0.07,-0.14 z"
       style="fill:#e92322" /><path
       id="パス_805-6"
       class="st1"
       d="m 28.44,48.27 c 0.07,0 0.12,0.06 0.12,0.13 0,0 0,0 0,0 v 0 c 0,0.06 -0.05,0.11 -0.11,0.11 0,0 0,0 0,0 h -0.01 l -1.33,-0.04 c -0.06,0 -0.1,-0.05 -0.1,-0.1 v -0.01 0 c 0,-0.06 0.04,-0.1 0.1,-0.11 h 0.01 z"
       style="fill:#e92322" /><path
       id="パス_806-0"
       class="st1"
       d="m 28.54,52.55 c 0.11,-0.14 0.31,-0.17 0.45,-0.07 0,0 0,0 0,0 0.14,0.11 0.17,0.31 0.07,0.45 0,0 0,0 0,0 -0.1,0.14 -0.3,0.17 -0.45,0.07 -0.14,-0.1 -0.17,-0.3 -0.07,-0.45 z"
       style="fill:#e92322" /><path
       id="パス_807-0"
       class="st1"
       d="m 30.08,52.82 c 0.1,-0.14 0.3,-0.18 0.45,-0.08 0,0 0,0 0,0 l 0.01,0.01 c 0.14,0.11 0.17,0.3 0.07,0.45 -0.11,0.14 -0.31,0.17 -0.46,0.07 -0.14,-0.11 -0.17,-0.31 -0.07,-0.45 z"
       style="fill:#e92322" /><path
       id="パス_808-9"
       class="st1"
       d="m 31.63,52.54 c 0.1,-0.14 0.3,-0.17 0.45,-0.07 0,0 0,0 0,0 0.14,0.1 0.18,0.3 0.07,0.45 0,0 0,0 0,0 -0.11,0.14 -0.3,0.17 -0.45,0.07 -0.14,-0.1 -0.18,-0.29 -0.08,-0.44 0,0 0,0 0,0 z"
       style="fill:#e92322" /><path
       id="パス_809-5"
       class="st1"
       d="m 30.85,50.26 c -0.02,-0.06 0.01,-0.13 0.07,-0.15 v 0 c 0.06,-0.02 0.13,0.01 0.15,0.07 l 0.44,1.28 c 0.02,0.05 -0.01,0.11 -0.06,0.13 v 0 0 c -0.05,0.02 -0.11,-0.01 -0.13,-0.06 0,0 0,0 0,0 v 0 z"
       style="fill:#e92322" /><path
       id="パス_810-6"
       class="st1"
       d="m 30.21,50.33 c 0,-0.06 0.05,-0.12 0.12,-0.12 v 0 c 0.06,0 0.12,0.05 0.12,0.11 v 1.34 c 0,0.06 -0.05,0.11 -0.11,0.11 v 0 0 c -0.06,0 -0.11,-0.05 -0.11,-0.11 0,0 0,0 0,0 v 0 z"
       style="fill:#e92322" /><path
       id="パス_811-2"
       class="st1"
       d="m 29.58,50.18 c 0.02,-0.06 0.08,-0.09 0.15,-0.08 h 0.01 v 0 c 0.06,0.02 0.09,0.09 0.07,0.15 l -0.47,1.28 c -0.02,0.05 -0.08,0.08 -0.13,0.07 v 0 0 c -0.05,-0.01 -0.09,-0.07 -0.08,-0.12 0,0 0,0 0,0 v -0.01 z"
       style="fill:#e92322" /><path
       id="パス_812-8"
       class="st1"
       d="m 33.69,51.4 c -0.11,-0.14 -0.08,-0.34 0.06,-0.45 l 0.01,-0.01 c 0.14,-0.1 0.34,-0.07 0.45,0.07 0.11,0.14 0.08,0.34 -0.06,0.45 l -0.01,0.01 c -0.15,0.1 -0.35,0.07 -0.45,-0.07 z"
       style="fill:#e92322" /><path
       id="パス_813-5"
       class="st1"
       d="m 34.4,50.02 c -0.11,-0.15 -0.07,-0.35 0.07,-0.46 0,0 0,0 0,0 0.15,-0.11 0.35,-0.07 0.46,0.07 0.11,0.15 0.07,0.35 -0.07,0.46 v 0 c -0.15,0.1 -0.35,0.07 -0.46,-0.07 z"
       style="fill:#e92322" /><path
       id="パス_814-9"
       class="st1"
       d="m 34.62,48.45 c -0.11,-0.15 -0.07,-0.35 0.07,-0.46 0,0 0,0 0,0 0.15,-0.11 0.35,-0.07 0.46,0.07 0.11,0.15 0.07,0.35 -0.07,0.46 v 0 c -0.14,0.11 -0.34,0.08 -0.45,-0.06 z"
       style="fill:#e92322" /><path
       id="パス_815-4"
       class="st1"
       d="m 32.22,48.48 c -0.06,0.01 -0.12,-0.04 -0.13,-0.1 0,0 0,0 0,0 v -0.01 0 c 0,-0.07 0.05,-0.12 0.12,-0.13 h 1.34 c 0.06,0 0.11,0.04 0.11,0.1 v 0 c 0,0.06 -0.04,0.11 -0.1,0.12 z"
       style="fill:#e92322" /><path
       id="パス_816-3"
       class="st1"
       d="m 32.09,49.13 c -0.06,-0.02 -0.1,-0.08 -0.08,-0.14 v 0 0 c 0.02,-0.06 0.08,-0.1 0.14,-0.08 l 1.28,0.4 c 0.06,0.02 0.09,0.08 0.07,0.13 v 0 c -0.01,0.05 -0.07,0.09 -0.12,0.08 0,0 0,0 0,0 h -0.01 z"
       style="fill:#e92322" /><path
       id="パス_817-9"
       class="st1"
       d="m 31.75,49.67 c -0.05,-0.04 -0.05,-0.12 0,-0.16 v 0 0 c 0.04,-0.04 0.12,-0.04 0.16,0 l 1.06,0.83 c 0.04,0.04 0.04,0.1 0,0.14 v 0 c -0.04,0.04 -0.11,0.04 -0.15,0 0,0 0,0 0,0 z"
       style="fill:#e92322" /><path
       id="パス_818-0"
       class="st1"
       d="m 51.18,27.53 c 0.16,0.12 0.34,0.22 0.53,0.3 0.18,0.08 0.31,0.24 0.34,0.44 0.08,0.32 0.35,2.08 0.35,2.08 l 0.53,-0.04 c 0,0 -0.32,-1.76 -0.35,-2.08 -0.04,-0.2 0.03,-0.4 0.18,-0.53 0.18,-0.15 0.33,-0.33 0.44,-0.54 V 27.1 c 0.41,-0.55 0.55,-1.26 0.38,-1.92 -0.15,-1.02 -1.1,-1.73 -2.12,-1.58 v 0 c -0.03,0 -0.06,0.01 -0.09,0.02 -1,0.38 -1.54,1.48 -1.22,2.51 0.12,0.58 0.5,1.09 1.03,1.4 z M 51.48,24 c 0.82,-0.15 1.61,0.4 1.75,1.23 0,0.02 0.01,0.04 0.01,0.06 0.17,0.64 -0.02,1.33 -0.51,1.78 -0.09,0.07 -0.23,0.05 -0.29,-0.04 v 0 l -0.01,-0.02 -0.36,-0.5 c -0.07,-0.1 -0.14,-0.08 -0.18,0 l -0.16,0.58 c -0.04,0.12 -0.21,0.14 -0.3,0.12 -0.46,-0.24 -0.78,-0.67 -0.9,-1.17 -0.26,-0.82 0.14,-1.7 0.93,-2.03 z m 8.08,11.35 c 0.26,-0.78 0.64,-1.51 1.12,-2.17 0.12,-0.24 0,-0.4 -0.27,-0.35 -1.07,0.25 -2.11,0.58 -3.13,0.98 -0.64,0.26 -1.28,0.52 -1.82,0.78 0.1,-0.83 0.35,-2.92 0.4,-3.21 0.02,-0.2 0.14,-0.38 0.32,-0.46 0.22,-0.09 0.41,-0.23 0.58,-0.4 0.03,-0.04 0.05,-0.08 0.06,-0.12 0.75,-0.45 1.02,-1.39 0.64,-2.17 -0.41,-0.87 -1.44,-1.26 -2.33,-0.88 -0.84,0.38 -1.22,1.37 -0.84,2.21 l 0.03,0.06 c 0.08,0.17 0.19,0.33 0.33,0.47 0.01,0.05 0.02,0.09 0.04,0.13 0.1,0.26 0.4,0.43 0.47,0.52 0.15,0.13 0.23,0.33 0.2,0.53 0,0.33 -0.44,3.52 -0.44,3.52 h 0.07 c -0.81,0.41 -1.58,0.9 -2.28,1.46 0.04,-0.3 0.08,-0.64 0.12,-0.99 v 0 c 0.01,-0.03 0.03,-0.06 0.06,-0.07 0.61,-0.29 1.09,-0.8 1.35,-1.43 0.04,-0.12 -0.06,-0.2 -0.14,-0.06 -0.28,0.5 -0.69,0.92 -1.19,1.2 -0.01,0.01 -0.03,0.01 -0.04,0 0.05,-0.59 0.1,-1.21 0.12,-1.81 v 0 c 0.02,-0.03 0.04,-0.06 0.07,-0.08 0.46,-0.17 0.87,-0.45 1.2,-0.81 0.06,-0.12 0,-0.19 -0.13,-0.08 -0.31,0.28 -0.67,0.5 -1.06,0.64 -0.05,0 -0.07,0 -0.07,-0.04 V 31.1 C 53,31.04 52.95,31 52.9,31 c -0.06,0 -0.1,0.05 -0.1,0.1 v 0 0 c 0.01,0.53 -0.01,1.06 -0.05,1.59 h -0.06 c -0.2,-0.16 -0.38,-0.34 -0.54,-0.54 -0.12,-0.12 -0.2,-0.04 -0.14,0.08 0.18,0.28 0.4,0.53 0.64,0.75 0.02,0.02 0.04,0.05 0.06,0.08 v 0 c -0.04,0.64 -0.09,1.28 -0.14,1.76 -0.39,-0.51 -0.7,-1.07 -0.93,-1.67 -0.06,-0.14 -0.17,-0.12 -0.14,0 0.19,0.75 0.53,1.44 1.02,2.04 0.01,0.03 0.01,0.06 0,0.08 -0.06,0.55 -0.13,0.95 -0.17,1.2 -0.4,-0.92 -0.91,-1.78 -1.54,-2.56 -0.33,-0.38 -0.69,-0.74 -1.08,-1.06 l -0.26,-0.2 c -0.55,-0.44 -1.15,-0.82 -1.78,-1.13 -0.3,-0.1 -0.35,0.14 -0.32,0.26 0.15,0.76 0.18,1.53 0.08,2.29 -0.08,0.61 -0.3,1.18 -0.64,1.69 -0.15,-0.19 -0.33,-0.37 -0.51,-0.53 -0.11,-0.1 -0.26,-0.05 -0.31,0.11 -0.29,0.79 -0.68,1.54 -1.17,2.22 -0.45,0.6 -0.99,1.12 -1.6,1.57 -0.52,-0.98 -1.23,-1.86 -2.09,-2.56 -0.2,-0.15 -0.3,0 -0.34,0.12 -0.37,1.37 -0.9,2.7 -1.58,3.95 -0.71,1.26 -1.64,2.39 -2.72,3.35 L 36.25,43.91 C 35.6,43.75 34.94,43.66 34.27,43.63 h -0.26 c -0.1,0 -0.1,0 -0.13,-0.1 -0.02,-0.07 -0.05,-0.15 -0.09,-0.22 v 0 c -0.24,-0.65 -0.54,-1.27 -0.9,-1.85 -0.33,-0.51 -0.73,-0.97 -1.19,-1.37 -0.12,-0.11 -0.31,-0.11 -0.43,0 l -0.82,0.84 c -0.03,0.03 -0.08,0.04 -0.12,0.01 v 0 0 L 29.51,40.1 c -0.13,-0.11 -0.32,-0.11 -0.44,0 -0.46,0.4 -0.86,0.87 -1.19,1.37 -0.35,0.58 -0.65,1.19 -0.88,1.82 v 0.04 l -0.1,0.17 c -0.03,0.09 -0.05,0.1 -0.13,0.1 h -0.22 c -0.7,0.03 -1.4,0.13 -2.08,0.3 L 24,44.04 c -0.97,-0.84 -1.81,-1.83 -2.49,-2.92 -0.7,-1.37 -1.33,-2.78 -1.88,-4.22 -0.08,-0.13 -0.17,-0.16 -0.28,-0.06 -0.71,0.73 -1.31,1.56 -1.79,2.46 -0.43,-0.37 -0.83,-0.78 -1.17,-1.24 -0.56,-0.8 -1.14,-1.83 -1.21,-1.92 -0.07,-0.1 -0.2,-0.24 -0.35,-0.06 l -0.42,0.49 c -0.32,-0.48 -0.58,-1 -0.77,-1.54 -0.25,-0.8 -0.42,-1.62 -0.51,-2.45 0,-0.18 -0.12,-0.27 -0.37,-0.15 -0.65,0.37 -1.79,1.33 -1.79,1.33 -0.365885,0.238958 -0.364583,0.243542 -0.5,-0.08 0,0 -0.44,-0.99 -0.72,-1.46 C 9.41,31.67 8.94,31.21 8.38,30.87 8.34,30.23 8.24,28.45 8.26,28.18 8.24,27.98 8.34,27.79 8.5,27.67 8.67,27.56 8.82,27.43 8.96,27.27 9.41,26.87 9.67,26.3 9.68,25.7 9.79,24.63 9.05,23.66 7.99,23.48 c -1.03,0 -1.86,0.84 -1.86,1.87 v 0.05 c -0.04,0.69 0.24,1.36 0.76,1.82 v 0.06 c 0.15,0.18 0.33,0.33 0.54,0.44 0.17,0.1 0.28,0.29 0.28,0.49 0,0.26 0.1,1.98 0.12,2.67 v 0 C 7.09,31.52 6.43,32.24 5.86,33.03 5.63,33.39 5.41,33.76 5.22,34.14 5.14,33.23 4.92,31.55 4.91,31.31 4.87,31.12 4.94,30.92 5.08,30.79 5.15,30.71 5.45,30.53 5.55,30.27 5.57,30.23 5.58,30.18 5.58,30.14 6.25,29.48 6.25,28.4 5.59,27.74 v 0 C 5.45,27.6 5.28,27.48 5.1,27.4 4.16,27 3.13,27.39 2.72,28.26 c -0.39,0.78 -0.11,1.73 0.64,2.18 0.01,0.04 0.04,0.08 0.06,0.12 0.17,0.17 0.36,0.3 0.58,0.4 0.18,0.09 0.3,0.26 0.32,0.46 0.06,0.28 0.35,2.82 0.42,3.4 C 4.32,34.66 3.89,34.53 3.46,34.43 3.13,34.35 1.41,33.92 0.83,33.69 0.64,33.61 0.54,33.72 0.54,33.87 c 0,0.15 -0.04,3.21 0.64,4.86 0.32,0.75 0.72,1.46 1.19,2.13 -0.33,0.06 -0.65,0.17 -0.95,0.31 -0.26,0.14 -0.12,0.31 -0.08,0.38 0.94,1.58 2.04,3.06 3.28,4.42 0.99,0.98 2.07,1.87 3.21,2.67 l -0.11,0.09 c -0.19,0.17 -0.21,0.27 0,0.4 0.21,0.13 2.7,3.21 9.42,3.12 1.52,0 3.03,-0.2 4.49,-0.6 -0.11,0.05 -0.22,0.12 -0.33,0.17 -2.07,1.09 -3.08,1.53 -3.21,1.6 -0.09,0.05 -0.12,0.16 -0.08,0.25 0.02,0.03 0.04,0.06 0.08,0.08 l 1.69,0.93 c 0.08,0.03 0.16,0.03 0.24,0 1.03,-0.49 2.02,-1.07 2.96,-1.71 0.64,-0.43 1.01,-0.76 1.28,-0.96 -0.03,0.24 -0.06,0.47 -0.06,0.64 -0.03,0.61 0.02,1.21 0.15,1.81 0.03,0.16 0.17,0.28 0.34,0.26 l 1.17,-0.2 c 0.05,0 0.09,0.03 0.1,0.08 l 0.17,1.16 c 0.04,0.16 0.19,0.27 0.36,0.26 0.61,-0.06 1.2,-0.2 1.77,-0.41 0.61,-0.25 1.2,-0.57 1.75,-0.94 0.02,-0.01 0.04,-0.02 0.06,-0.04 l 0.18,-0.12 c 0.08,-0.05 0.1,-0.04 0.17,0 l 0.25,0.16 c 0.55,0.37 1.14,0.68 1.76,0.92 0.57,0.22 1.16,0.35 1.76,0.41 0.16,0.03 0.32,-0.08 0.36,-0.24 l 0.17,-1.17 c 0,-0.05 0.05,-0.08 0.09,-0.07 v 0 h 0.01 l 1.16,0.19 c 0.17,0.02 0.33,-0.1 0.36,-0.26 0.11,-0.58 0.14,-1.18 0.1,-1.77 -0.01,-0.26 -0.04,-0.52 -0.08,-0.78 0.52,0.43 2.96,2.56 3.02,2.56 0.05,0.04 0.11,0.07 0.17,0.09 h 0.08 c 0.09,0 2.3,-0.38 2.3,-0.38 0.21,-0.04 0.28,-0.26 0.14,-0.35 -0.13,-0.1 -1.58,-0.89 -2.83,-1.67 -0.73,-0.46 -1.39,-0.92 -1.88,-1.28 1.33,0.43 2.68,0.78 4.05,1.05 1.48,0.31 6.72,1.46 11.45,-2.22 0.09,-0.07 0.1,-0.2 0.02,-0.29 l -0.02,-0.02 c 0,0 -0.3,-0.26 -0.74,-0.64 1.17,-0.68 2.29,-1.45 3.35,-2.29 1.35,-1.16 2.56,-2.48 3.59,-3.93 0.3,-0.29 0.63,-0.55 0.98,-0.77 0.09,-0.05 0.13,-0.16 0.08,-0.26 -0.03,-0.05 -0.08,-0.09 -0.14,-0.1 -1.02,-0.29 -2.07,-0.46 -3.13,-0.52 0.67,-0.68 1.23,-1.47 1.64,-2.33 0.42,-1.08 0.77,-2.14 1.07,-3.2 z M 55.2,30.16 c -0.28,-0.13 -0.51,-0.36 -0.64,-0.64 -0.33,-0.66 -0.06,-1.47 0.6,-1.8 L 55.2,27.7 c 0.71,-0.31 1.54,-0.01 1.88,0.68 0.32,0.67 0.04,1.47 -0.63,1.8 L 56.4,30.2 c -0.1,0.04 -0.21,0.08 -0.31,0.1 C 56.05,30.27 56.01,30.22 56,30.17 l -0.21,-0.58 c -0.04,-0.12 -0.12,-0.12 -0.19,0 l -0.31,0.51 c -0.02,0.03 -0.05,0.05 -0.09,0.06 z m -7.43,3.95 c 0.09,-0.64 0.09,-1.29 0,-1.92 0,-0.15 0,-0.13 0.2,0 0.96,0.57 1.82,1.28 2.56,2.11 0.62,0.8 1.13,1.69 1.52,2.63 -0.4,0.39 -0.76,0.82 -1.08,1.28 -0.75,0.67 -1.62,1.2 -2.56,1.54 -0.04,0 -0.08,-0.03 -0.08,-0.07 v 0 -0.22 c -0.04,-0.29 -0.09,-0.58 -0.16,-0.87 v 0 -0.11 c 1.11,-0.52 2.03,-1.37 2.64,-2.44 0.06,-0.12 -0.06,-0.28 -0.15,-0.12 -0.6,0.99 -1.5,1.77 -2.56,2.24 0,0 -0.05,0 -0.08,-0.07 v 0 c -0.09,-0.28 -0.19,-0.54 -0.3,-0.79 -0.02,-0.05 -0.02,-0.1 0,-0.14 0.6,-1.04 0.84,-2.24 0.69,-3.43 0,-0.13 -0.18,-0.17 -0.18,0 0.1,1.07 -0.12,2.16 -0.64,3.1 0,0 -0.05,0.08 -0.08,0 -0.11,-0.22 -0.24,-0.44 -0.38,-0.64 0.37,-0.65 0.6,-1.37 0.66,-2.12 z m 0.65,7.69 v -0.03 c 0.33,-0.03 0.66,-0.1 0.97,-0.21 0.04,0 0,0.04 0,0.06 -0.1,0.45 -0.15,0.83 -0.19,1.08 -0.31,0.2 -0.6,0.4 -0.84,0.59 0.07,-0.51 0.1,-1.02 0.09,-1.53 z m 0.03,-0.33 c -0.03,0 -0.03,0 -0.04,-0.06 v 0 c -0.01,-0.43 -0.05,-0.86 -0.1,-1.28 v -0.05 c 0.81,-0.31 1.57,-0.75 2.24,-1.31 -0.15,0.26 -0.3,0.53 -0.43,0.79 -0.28,0.53 -0.49,1.09 -0.64,1.67 0,0 0,0.04 -0.06,0.06 -0.3,0.09 -0.61,0.14 -0.92,0.14 z m -2.27,-5.69 c 0,-0.04 0,-0.1 0.09,0 0.09,0.1 1.4,1.38 1.69,4.31 0.14,1.18 0.14,2.38 0,3.56 -0.53,0.46 -0.98,1.01 -1.33,1.62 -0.47,-0.19 -0.96,-0.34 -1.46,-0.45 -0.36,-0.08 -0.72,-0.14 -1.08,-0.18 v -1.08 c 0,0 0,-0.04 0.05,-0.04 1.1,-0.16 2.16,-0.53 3.12,-1.1 0.1,-0.07 0.06,-0.24 -0.08,-0.16 -0.95,0.51 -1.99,0.83 -3.06,0.95 -0.02,0.01 -0.04,0.01 -0.05,0 -0.01,-0.49 -0.06,-0.99 -0.14,-1.47 v -0.06 c 1.11,-0.13 2.17,-0.49 3.14,-1.04 0.11,-0.06 0.07,-0.24 -0.08,-0.16 -0.96,0.49 -1.99,0.8 -3.06,0.9 -0.04,0 -0.08,-0.03 -0.08,-0.08 -0.02,-0.18 -0.05,-0.35 -0.1,-0.52 -0.04,-0.17 -0.06,-0.29 -0.1,-0.43 -0.04,-0.14 0,-0.08 0.04,-0.1 0.4,-0.28 0.74,-0.63 1.03,-1.02 v 0 c 0.03,0 0.06,-0.01 0.08,-0.03 0.62,-0.03 1.22,-0.26 1.71,-0.64 0.09,-0.09 0.04,-0.17 -0.1,-0.09 -0.43,0.3 -0.93,0.47 -1.45,0.49 -0.04,0 0,0 0,-0.04 v 0 c 0.31,-0.53 0.5,-1.12 0.55,-1.73 0.27,-0.45 0.5,-0.92 0.67,-1.41 z m -1.37,2.27 c 0.1,-0.13 0.19,-0.24 0.27,-0.35 0.08,-0.11 0.06,-0.04 0.05,0 -0.27,0.87 -0.8,1.64 -1.52,2.21 0,0 -0.06,0.05 -0.1,0 v 0 c -0.06,-0.16 -0.12,-0.31 -0.19,-0.46 0.56,-0.39 1.06,-0.86 1.49,-1.4 z m -5.13,2.28 c 0.5,-1.04 0.93,-2.11 1.28,-3.21 0,-0.08 0.07,-0.1 0.17,0 0.97,0.95 1.69,2.12 2.12,3.41 0.34,1.33 0.48,2.7 0.41,4.07 -0.94,-0.08 -1.89,-0.02 -2.81,0.18 0.61,-0.46 1.18,-0.95 1.72,-1.49 0.08,-0.1 0,-0.19 -0.11,-0.07 -0.69,0.63 -1.42,1.21 -2.2,1.72 -0.9,0.26 -1.73,0.74 -2.42,1.38 l -0.31,-0.15 c -0.04,-0.02 -0.06,-0.08 -0.04,-0.12 v 0 l 0.54,-1.04 c 0.06,-0.16 0,-0.33 -0.14,-0.42 l -0.19,-0.1 c 0.32,-0.29 0.63,-0.59 0.92,-0.91 v 0 c 1.51,-0.17 2.92,-0.86 3.98,-1.95 0.1,-0.08 0.03,-0.24 -0.1,-0.13 -1,0.96 -2.27,1.6 -3.64,1.82 v 0 c 0.59,-0.68 1.06,-1.46 1.4,-2.29 v 0 c 0.69,-0.14 1.27,-0.63 1.51,-1.29 0.06,-0.11 -0.04,-0.21 -0.12,-0.06 -0.23,0.55 -0.71,0.96 -1.28,1.11 v 0 c 0.19,-0.6 0.34,-1.22 0.43,-1.85 0,-0.13 -0.1,-0.19 -0.12,0 -0.41,2.83 -2.56,4.87 -3.21,5.45 C 37.29,44.3 37.1,44.22 36.91,44.15 38.06,43.06 39,41.77 39.68,40.34 Z M 19.27,37.39 c 0.06,0 0.09,0 0.12,0.08 0.47,1.25 1.01,2.47 1.62,3.66 0.67,1.14 1.52,2.17 2.51,3.06 -0.27,0.11 -0.54,0.25 -0.79,0.4 -0.15,0.08 -0.21,0.26 -0.14,0.41 0,0 0.54,1.04 0.54,1.05 0.02,0.04 0.01,0.09 -0.03,0.11 h -0.01 l -0.12,0.06 c -0.72,-0.45 -1.52,-0.77 -2.35,-0.96 -0.95,-0.76 -1.84,-1.58 -2.66,-2.48 -0.14,-0.17 -0.26,-0.05 -0.15,0.08 0.68,0.8 1.41,1.55 2.19,2.26 -0.89,-0.16 -1.8,-0.22 -2.7,-0.17 -0.48,-1.53 -0.43,-3.18 0.14,-4.67 0.43,-1.07 1.05,-2.04 1.83,-2.89 z m -4.43,-0.84 c 0.07,-0.1 0.08,0 0.13,0.1 0.32,0.59 0.67,1.15 1.07,1.69 0.38,0.47 0.79,0.92 1.24,1.33 -0.11,0.23 -0.21,0.47 -0.3,0.71 -0.75,-0.8 -1.3,-1.77 -1.62,-2.82 -0.05,-0.14 -0.2,-0.1 -0.16,0.07 0.14,0.55 0.34,1.08 0.6,1.59 v 0 C 15.48,39 15.19,38.74 14.93,38.46 c -0.09,-0.1 -0.21,-0.03 -0.15,0.08 0.38,0.5 0.84,0.92 1.37,1.25 0.03,0.03 0.06,0.06 0.08,0.09 v 0 c 0.18,0.28 0.4,0.54 0.64,0.78 -0.11,0.37 -0.2,0.75 -0.25,1.13 0,0.04 -0.11,0 -0.13,0 -0.88,-0.43 -1.66,-1.04 -2.28,-1.79 -0.11,-0.12 -0.24,0.04 -0.15,0.13 0.66,0.85 1.5,1.55 2.46,2.04 0.03,0.03 0.06,0.07 0.08,0.12 -0.02,0.53 0.01,1.07 0.09,1.6 v 0 c -0.02,0.05 -0.07,0.07 -0.12,0.05 v 0 c -0.96,-0.47 -1.82,-1.12 -2.52,-1.92 -0.11,-0.13 -0.21,0 -0.13,0.12 0.34,0.46 0.71,1.04 2.85,2.27 0.02,0.02 0.04,0.05 0.05,0.08 0.04,0.17 0.08,0.3 0.1,0.39 -0.34,0.01 -0.67,0.05 -1.01,0.11 -0.37,0.05 -0.84,0.15 -1.24,0.24 -0.61,-0.64 -1.27,-1.24 -1.97,-1.8 0.01,-1.28 0.15,-2.55 0.41,-3.8 0.35,-1.14 0.94,-2.19 1.73,-3.08 z m -4.33,-1.89 c 0.62,-0.68 1.33,-1.28 2.1,-1.77 0.09,-0.07 0.12,0 0.12,0.06 0.1,0.71 0.25,1.4 0.44,2.09 0.24,0.64 0.55,1.25 0.92,1.82 l -0.19,0.25 h -0.04 c -0.78,-0.74 -1.32,-1.71 -1.54,-2.76 -0.04,-0.16 -0.2,-0.06 -0.17,0.06 0.1,0.44 0.24,0.87 0.42,1.28 0,0.03 0,0.05 -0.08,0 -0.27,-0.24 -0.52,-0.51 -0.74,-0.8 -0.1,-0.13 -0.23,0 -0.16,0.11 0.31,0.52 0.73,0.95 1.23,1.28 l 0.06,0.06 c 0.21,0.37 0.48,0.71 0.79,1 0.03,0.03 0.04,0.08 0.03,0.13 -0.27,0.41 -0.5,0.84 -0.7,1.28 h -0.06 c -0.76,-0.73 -1.44,-1.55 -2.02,-2.44 -0.1,-0.14 -0.23,0 -0.16,0.08 0.57,0.95 1.25,1.82 2.04,2.59 0.03,0.03 0.05,0.06 0.05,0.1 -0.13,0.33 -0.22,0.67 -0.28,1.02 l -0.04,0.25 v 0 c -0.04,0.04 -0.04,0.06 -0.08,0.04 -1.01,-0.73 -1.88,-1.64 -2.56,-2.69 -0.11,-0.16 -0.24,-0.04 -0.17,0.08 0.65,1.2 1.58,2.22 2.7,2.99 l 0.04,0.06 c -0.1,0.79 -0.16,1.59 -0.17,2.39 l -0.2,-0.16 -0.26,-0.18 C 11.4,41.49 10.73,40.19 9.84,39.03 9.46,38.52 9.1,38.07 8.74,37.67 9.21,36.62 9.8,35.6 10.51,34.66 Z M 8.23,31.3 c 0.6,0.45 1.09,1.02 1.44,1.69 0.24,0.46 0.45,0.94 0.64,1.42 -0.25,0.28 -0.47,0.58 -0.68,0.9 C 9.2,35.98 8.81,36.68 8.47,37.4 8.38,37.3 8.29,37.21 8.19,37.12 c -0.09,-0.09 0,-0.4 -0.04,-0.87 0,-0.03 0.02,-0.05 0.04,-0.07 0.38,-0.31 0.7,-0.7 0.92,-1.14 C 9.17,34.94 9.05,34.8 8.96,34.94 8.73,35.27 8.45,35.56 8.13,35.8 H 8.09 v -1.58 0 C 8.11,34.19 8.13,34.17 8.15,34.14 8.55,33.83 8.87,33.44 9.1,33 9.16,32.88 9.1,32.79 8.97,32.92 8.74,33.21 8.49,33.5 8.22,33.76 8.2,33.79 8.15,33.8 8.1,33.79 v 0.04 c 0,-0.84 0.04,-1.69 0.13,-2.53 z M 7.59,27 C 7.56,27.11 7.44,27.17 7.33,27.14 7.32,27.14 7.3,27.13 7.29,27.12 6.72,26.77 6.4,26.14 6.45,25.47 6.41,24.64 7.04,23.94 7.87,23.9 v 0 h 0.05 c 0.85,0.15 1.44,0.93 1.35,1.8 0,0.52 -0.24,1.01 -0.64,1.35 C 8.52,27.1 8.39,27.08 8.31,26.99 L 8.04,26.45 c -0.05,-0.1 -0.13,-0.1 -0.18,0 z M 6.15,33.22 C 6.69,32.52 7.3,31.87 7.97,31.3 L 8.01,31.26 C 7.89,32.23 7.82,33.2 7.8,34.18 7.77,34.2 7.74,34.2 7.71,34.18 7.52,33.87 7.36,33.54 7.23,33.21 c -0.05,-0.16 -0.2,-0.1 -0.17,0 0.13,0.47 0.35,0.9 0.64,1.28 0.04,0.06 0.08,0.12 0.11,0.19 v 1.25 c 0,0.04 -0.04,0.09 -0.06,0.06 C 7.36,35.61 7,35.21 6.68,34.79 c -0.11,-0.13 -0.19,0 -0.13,0.08 0.06,0.08 0.7,0.97 1.2,1.51 0.03,0.05 0.05,0.09 0.07,0.14 v 0.24 C 7.07,36.04 6.2,35.45 5.25,35.02 5.51,34.4 5.81,33.8 6.15,33.22 Z M 4.52,29.58 c -0.06,-0.1 -0.14,-0.1 -0.19,0 L 4.12,30.16 C 4.1,30.21 4.07,30.26 4.02,30.29 3.92,30.27 3.83,30.25 3.74,30.21 3.05,29.93 2.72,29.14 3,28.46 v 0 C 3.01,28.44 3.02,28.42 3.03,28.39 3.37,27.7 4.2,27.4 4.9,27.71 c 0.68,0.29 1,1.08 0.7,1.76 -0.01,0.02 -0.02,0.04 -0.03,0.05 -0.13,0.28 -0.36,0.51 -0.64,0.64 -0.06,0 -0.11,-0.02 -0.14,-0.07 z m -3.09,8.6 c -0.34,-1.29 -0.5,-2.61 -0.49,-3.94 0,-0.09 0.03,-0.1 0.13,-0.06 0.99,0.35 3.21,0.83 4.05,1.2 2.21,0.99 3.9,3.26 4.28,3.75 0.79,1.04 1.43,2.2 1.88,3.42 -0.65,-0.4 -1.34,-0.73 -2.05,-1 v 0 c -0.01,-0.05 -0.01,-0.11 0,-0.16 0.03,-0.52 0,-1.03 -0.07,-1.54 0,-0.12 -0.17,-0.12 -0.17,0.04 0.06,0.49 0.06,0.99 0,1.48 0,0.03 -0.02,0.05 -0.04,0.07 -0.57,-0.2 -1.15,-0.37 -1.74,-0.5 -0.01,-0.02 -0.01,-0.05 0,-0.08 0.12,-0.85 0.12,-1.71 0,-2.56 -0.03,-0.12 -0.17,-0.1 -0.16,0.05 0.05,0.83 0.01,1.67 -0.1,2.5 0,0.02 -0.01,0.04 -0.03,0.04 C 6.61,40.82 6.28,40.76 5.93,40.71 5.58,40.66 5.4,40.65 5.15,40.63 v -0.06 c 0.17,-1.31 0.15,-2.65 -0.06,-3.95 -0.04,-0.12 -0.21,-0.13 -0.18,0 0.17,1.3 0.17,2.63 0,3.93 0,0.02 -0.02,0.04 -0.04,0.05 -0.4,-0.03 -0.8,-0.03 -1.19,0 v 0 C 3.32,40.03 3.02,39.43 2.78,38.8 L 2.62,38.4 v 0 -0.12 c 0.62,-0.7 0.89,-1.64 0.76,-2.56 0,-0.14 -0.14,-0.1 -0.13,0 0.08,0.85 -0.2,1.69 -0.78,2.32 H 2.4 C 2.27,37.67 2.09,37.2 1.88,36.58 c 0,-0.08 -0.17,-0.07 -0.13,0.07 0.19,0.76 0.43,1.51 0.71,2.24 0.16,0.41 0.57,1.28 0.81,1.72 v 0.06 L 2.8,40.75 C 2.22,39.97 1.75,39.1 1.43,38.18 Z m 2.96,6.94 C 3.42,44 2.56,42.78 1.83,41.48 c -0.03,-0.06 0,-0.06 0.04,-0.1 1.38,-0.41 2.83,-0.5 4.25,-0.25 3.1,0.46 5.94,1.97 8.06,4.27 v 0 c -0.54,0.14 -1.08,0.31 -1.6,0.51 0,0 -0.04,0 -0.04,-0.06 -0.03,-0.44 -0.12,-0.87 -0.25,-1.28 -0.05,-0.13 -0.18,-0.07 -0.15,0 0.13,0.45 0.18,0.93 0.14,1.4 v 0.07 c -0.54,0.22 -1.04,0.45 -1.51,0.68 -0.01,-0.01 -0.01,-0.03 0,-0.04 -0.06,-1.02 -0.27,-2.02 -0.64,-2.96 -0.07,-0.11 -0.2,-0.06 -0.15,0.09 0.28,0.97 0.44,1.98 0.49,2.99 0.01,0.03 0.01,0.07 0,0.1 C 10,47.12 9.6,47.36 9.25,47.58 9.21,47.6 9.16,47.6 9.12,47.58 9.05,47.55 8.98,47.51 8.92,47.48 8.91,47.46 8.91,47.43 8.92,47.4 8.93,45.82 8.55,44.26 7.81,42.86 7.75,42.75 7.62,42.78 7.68,42.92 c 0.63,1.35 0.96,2.81 0.98,4.3 0.01,0.03 0.01,0.06 0,0.08 C 7.99,46.93 7.34,46.5 6.73,46.03 6.7,45.99 6.69,45.95 6.68,45.91 6.55,44.52 6.15,43.17 5.49,41.93 c -0.08,-0.1 -0.2,0 -0.12,0.11 0.52,1.15 0.86,2.37 1.01,3.62 0,0.04 -0.03,0.04 -0.06,0 -0.8,-0.69 -1.47,-1.38 -1.97,-1.88 -0.12,-0.12 -0.21,0.04 -0.12,0.13 1.35,1.5 2.89,2.81 4.58,3.9 0.06,0.04 0.05,0 0,0.07 C 8.57,48.05 8.35,48.2 8.17,48.33 6.77,47.44 5.51,46.36 4.39,45.12 Z m 12.72,6.69 c -1.88,0.06 -6.06,-0.18 -8.92,-2.77 -0.08,-0.08 -0.08,-0.12 0.08,-0.23 2.17,-1.72 4.74,-2.86 7.47,-3.3 2.32,-0.46 4.72,-0.13 6.82,0.94 l -0.51,0.25 c -0.14,0.09 -0.2,0.27 -0.13,0.42 0.24,0.56 0.56,1.08 0.94,1.56 0.18,0.23 0.38,0.44 0.59,0.64 -0.14,0.06 -0.37,0.16 -0.64,0.27 v 0 c -0.03,0 -0.06,-0.02 -0.08,-0.04 -1.03,-1.32 -2.29,-2.45 -3.7,-3.33 -0.1,-0.04 -0.16,0.04 -0.04,0.11 1.32,0.91 2.49,2.03 3.45,3.31 v 0.08 c -0.93,0.3 -1.88,0.51 -2.85,0.64 0,0 -0.04,0 -0.06,-0.07 -0.82,-1.55 -2.07,-2.83 -3.61,-3.69 -0.12,-0.06 -0.2,0 -0.06,0.12 1.37,0.94 2.5,2.19 3.29,3.65 v 0.08 c -1.04,0.14 -2.1,0.19 -3.15,0.15 l -0.06,-0.06 c -0.76,-1.28 -1.74,-2.42 -2.89,-3.36 -0.11,-0.06 -0.19,0 -0.07,0.13 1.07,0.89 1.96,1.98 2.63,3.21 0,0.04 0,0.06 -0.03,0.06 -0.86,-0.05 -1.72,-0.15 -2.56,-0.31 v 0 c -0.09,-0.03 -0.17,-0.09 -0.22,-0.17 -0.57,-0.68 -1.24,-1.28 -1.98,-1.77 -0.11,-0.06 -0.14,0.04 -0.09,0.1 0.66,0.51 1.26,1.09 1.81,1.72 v 0 c -1.01,-0.21 -2,-0.49 -2.96,-0.84 -0.17,-0.06 -0.15,0.13 0,0.18 4.54,1.82 9.61,1.85 14.17,0.06 0.17,0.16 0.35,0.3 0.5,0.43 l -0.11,0.08 c -0.59,0.39 -2.75,1.63 -7.03,1.75 z m 7.41,-1.18 c -0.06,0.21 -0.12,0.46 -0.18,0.72 -0.56,0.51 -1.15,0.98 -1.78,1.4 -0.83,0.55 -1.7,1.05 -2.6,1.49 -0.05,0.03 -0.11,0.03 -0.17,0 -0.03,0 -1.1,-0.6 -1.11,-0.6 -0.03,-0.02 -0.04,-0.07 -0.02,-0.1 v 0 c 0.01,-0.01 0.01,-0.02 0.02,-0.02 0.06,-0.03 1.96,-0.94 2.97,-1.49 1,-0.53 1.96,-1.12 2.88,-1.78 0.06,0.05 0.05,0.07 0.03,0.14 -0.01,0.08 -0.03,0.18 -0.04,0.24 z m 11.44,3.51 c 0,0.13 -0.07,0.18 -0.21,0.17 l -1.2,-0.19 c -0.07,-0.01 -0.14,0.04 -0.15,0.11 v 0.01 c 0,0 -0.17,1.08 -0.2,1.19 -0.02,0.1 -0.12,0.17 -0.22,0.15 h -0.01 c -0.5,-0.04 -0.99,-0.16 -1.46,-0.34 -0.7,-0.29 -1.36,-0.67 -1.97,-1.13 v 0 c -0.19,-0.15 -0.21,-0.2 -0.37,-0.07 -0.05,0.04 -0.12,0.08 -0.18,0.13 -0.58,0.43 -1.22,0.79 -1.89,1.07 -0.47,0.18 -0.96,0.3 -1.46,0.34 -0.13,0 -0.2,0 -0.22,-0.14 l -0.21,-1.2 C 26.2,54.17 26.14,54.12 26.07,54.13 h -0.02 c 0,0 -1.09,0.17 -1.19,0.18 -0.1,0.01 -0.19,-0.06 -0.21,-0.17 -0.11,-0.49 -0.16,-0.99 -0.13,-1.49 0.07,-0.76 0.23,-1.5 0.47,-2.22 v 0 c 0.08,-0.24 0.12,-0.28 -0.04,-0.38 L 24.76,49.92 C 24.16,49.5 23.62,49 23.14,48.45 22.83,48.06 22.57,47.63 22.37,47.17 22.31,47.05 22.32,46.98 22.43,46.91 l 1.08,-0.56 c 0.07,-0.03 0.09,-0.11 0.06,-0.18 v 0 l -0.01,-0.01 c 0,0 -0.49,-0.97 -0.54,-1.07 -0.04,-0.1 0,-0.19 0.1,-0.25 0.43,-0.26 0.89,-0.46 1.38,-0.59 0.74,-0.17 1.49,-0.25 2.25,-0.24 v 0 c 0.28,0 0.32,0.04 0.37,-0.15 0.02,-0.08 0.04,-0.15 0.07,-0.22 0.22,-0.69 0.53,-1.35 0.9,-1.97 0.28,-0.42 0.61,-0.8 0.99,-1.13 0.1,-0.08 0.17,-0.11 0.27,0 l 0.87,0.85 c 0.04,0.05 0.12,0.06 0.18,0.02 v 0 l 0.02,-0.02 c 0,0 0.78,-0.78 0.86,-0.84 0.07,-0.07 0.19,-0.07 0.26,0 0.38,0.33 0.71,0.71 0.99,1.13 0.39,0.65 0.7,1.34 0.92,2.06 v 0 c 0.07,0.25 0.06,0.3 0.26,0.29 h 0.1 c 0.77,-0.01 1.53,0.07 2.28,0.24 0.48,0.13 0.95,0.33 1.38,0.59 0.12,0.06 0.15,0.12 0.1,0.24 l -0.54,1.09 c -0.03,0.07 -0.01,0.15 0.06,0.18 h 0.01 c 0,0 0.97,0.5 1.06,0.56 0.09,0.05 0.12,0.17 0.07,0.26 -0.2,0.46 -0.46,0.89 -0.78,1.28 -0.49,0.57 -1.04,1.08 -1.65,1.51 -0.22,0.14 -0.27,0.14 -0.2,0.34 0,0.04 0.01,0.08 0.04,0.12 0.25,0.72 0.41,1.46 0.47,2.22 0.02,0.49 -0.03,0.99 -0.15,1.48 z m 2.65,-1.93 c 1.28,0.85 2.56,1.56 2.64,1.6 0.02,0.02 0.03,0.06 0.01,0.08 l -0.01,0.01 -1.51,0.26 C 39.67,54.17 39.6,54.15 39.55,54.11 39.5,54.06 38.27,52.98 37.9,52.69 l -1.66,-1.43 c -0.05,-0.22 -0.11,-0.44 -0.16,-0.64 v 0 c -0.01,-0.07 -0.03,-0.13 -0.06,-0.19 v 0 l 0.13,0.04 c 0.41,0.28 1.3,0.94 2.46,1.72 z m 13.77,-2.76 c 0.08,0.08 0.07,0.1 0,0.14 -2.08,1.52 -4.59,2.34 -7.17,2.33 -3.25,0.04 -7.62,-1.4 -8.77,-1.8 l -0.1,-0.09 c 0.28,-0.22 0.54,-0.46 0.79,-0.7 1.88,0.78 8.24,3.12 13.2,0.49 0.11,-0.06 0,-0.21 -0.12,-0.13 -0.73,0.34 -1.49,0.6 -2.28,0.77 0,0 -0.04,-0.04 0,-0.06 0.54,-0.45 1.13,-0.84 1.76,-1.16 0.07,-0.04 0.05,-0.14 -0.07,-0.11 -0.83,0.34 -1.6,0.81 -2.28,1.39 -0.06,0.04 -0.12,0.06 -0.19,0.08 v 0 c -0.8,0.12 -1.61,0.17 -2.42,0.15 V 50.7 c 0.99,-0.98 2.17,-1.75 3.46,-2.28 0.14,-0.06 0.09,-0.16 0,-0.14 -1.44,0.48 -2.75,1.31 -3.8,2.42 -0.04,0.03 -0.09,0.05 -0.14,0.05 -1.33,-0.07 -2.64,-0.29 -3.92,-0.64 -0.02,-0.01 -0.03,-0.04 -0.02,-0.06 0,-0.01 0.01,-0.01 0.02,-0.02 1.38,-1.19 3,-2.06 4.76,-2.56 0.15,-0.04 0.1,-0.15 0,-0.13 -1.88,0.44 -3.62,1.34 -5.08,2.61 -0.02,0.02 -0.05,0.03 -0.07,0.04 -0.85,-0.25 -1.68,-0.55 -2.49,-0.9 l 0.26,-0.29 c 1.43,-1.19 3.09,-2.07 4.88,-2.56 0.15,-0.04 0.1,-0.15 0,-0.13 -1.55,0.34 -3.02,0.97 -4.33,1.87 0.17,-0.27 0.32,-0.55 0.44,-0.84 0.07,-0.15 0.02,-0.33 -0.13,-0.42 L 38.2,46.54 c 0.38,-0.37 2.21,-1.92 5.95,-1.5 2.99,0.33 6.45,2.87 8.22,4.41 z m 6.94,-7.84 c 0.21,0.04 0.1,0.12 0,0.17 -0.37,0.27 -0.69,0.59 -0.96,0.95 -0.82,1.25 -1.83,2.37 -3,3.31 -1.1,0.92 -2.29,1.74 -3.54,2.44 -0.21,-0.17 -0.44,-0.35 -0.69,-0.54 v 0 c -0.04,-0.06 -0.06,-0.04 0,-0.08 0.94,-0.38 2.01,-0.81 4.31,-3.12 0.88,-0.84 1.83,-1.61 2.85,-2.28 0.1,-0.07 0.06,-0.22 -0.08,-0.13 -0.88,0.52 -1.7,1.12 -2.46,1.8 v 0 c -0.02,-0.03 -0.02,-0.06 0,-0.08 0.17,-0.59 0.42,-1.15 0.75,-1.67 0.08,-0.13 0,-0.2 -0.1,-0.1 -0.47,0.63 -0.81,1.35 -0.97,2.12 -0.01,0.04 -0.03,0.08 -0.05,0.12 l -0.04,0.04 c -0.67,0.7 -1.4,1.33 -2.19,1.88 -0.01,-0.03 -0.01,-0.06 0,-0.08 0.1,-1.33 0.44,-2.63 0.98,-3.85 0.05,-0.14 -0.07,-0.17 -0.13,-0.06 -0.65,1.27 -1.03,2.66 -1.12,4.09 0,0.04 -0.02,0.08 -0.04,0.11 -0.61,0.42 -1.28,0.76 -1.97,1.01 h -0.08 c -0.22,-0.17 -0.46,-0.33 -0.71,-0.5 v -0.07 c 0.17,-1.19 0.48,-2.36 0.94,-3.47 0.05,-0.15 -0.05,-0.18 -0.12,-0.07 -0.55,1.05 -0.91,2.18 -1.08,3.35 0,0.05 0,0.05 -0.04,0.05 -0.49,-0.33 -1.02,-0.64 -1.57,-0.94 -0.02,-0.02 -0.03,-0.05 -0.04,-0.08 -0.08,-0.4 -0.1,-0.81 -0.04,-1.21 0,-0.08 -0.1,-0.12 -0.13,0 -0.07,0.35 -0.09,0.71 -0.07,1.07 0,0.05 0,0.05 -0.03,0.04 -0.29,-0.14 -0.58,-0.29 -0.87,-0.42 1.31,-2.37 4.93,-3.85 7.22,-4.1 1.69,-0.19 3.41,-0.09 5.07,0.3 z m -3.01,-0.77 h -1.23 c -0.08,0 0.06,-0.09 0.12,-0.14 0.84,-0.82 1.56,-1.75 2.12,-2.78 0.48,-1.05 1.06,-2.06 1.71,-3.01 0.08,-0.1 -0.06,-0.24 -0.16,-0.11 -0.56,0.75 -1.06,1.55 -1.47,2.39 v 0 c -0.03,-0.02 -0.05,-0.05 -0.05,-0.08 -0.12,-0.63 -0.14,-1.28 -0.04,-1.92 0,-0.15 -0.1,-0.17 -0.13,-0.04 -0.17,0.77 -0.17,1.56 0,2.33 v 0.1 l -0.15,0.26 c -0.47,0.77 -1.01,1.49 -1.62,2.16 v 0 c 0,0 -0.08,0 -0.09,-0.04 -0.16,-0.89 -0.18,-1.81 -0.06,-2.7 0,-0.16 -0.13,-0.18 -0.16,-0.06 -0.17,0.98 -0.17,1.99 0,2.97 0.01,0.05 0.01,0.1 0,0.14 l -0.53,0.48 c -0.07,0.06 -0.15,0.1 -0.24,0.13 -0.49,0.05 -0.98,0.14 -1.47,0.25 -0.02,-0.02 -0.04,-0.05 -0.04,-0.08 -0.03,-0.96 0.05,-1.91 0.24,-2.85 0,-0.16 -0.13,-0.15 -0.17,-0.03 -0.25,0.96 -0.36,1.96 -0.33,2.95 0,0.04 -0.01,0.07 -0.04,0.1 -0.59,0.15 -1.16,0.35 -1.72,0.6 -0.38,0.17 -0.73,0.35 -1.04,0.52 0.08,-1.19 0.94,-5.59 6.82,-7.86 1.09,-0.45 2.21,-0.84 3.35,-1.16 0.22,-0.06 0.14,0 0.1,0.12 -0.42,0.62 -0.73,1.31 -0.93,2.03 -0.64,2.64 -1.08,3.24 -1.78,4.3 -0.28,0.38 -0.62,0.74 -1.01,1.03 z m -34.57,2.75 h 0.08 c 0.16,0.19 0.33,0.36 0.51,0.53 0.14,0.12 0.42,-0.03 0.27,-0.19 -1.39,-1.29 -2.37,-2.97 -2.82,-4.81 -0.04,-0.14 -0.17,-0.1 -0.14,0.06 0.09,0.57 0.25,1.12 0.47,1.65 v 0.04 c -0.46,-0.33 -0.89,-0.7 -1.28,-1.11 -0.09,-0.1 -0.18,-0.05 -0.12,0.06 0.42,0.57 0.95,1.05 1.56,1.41 0.03,0 0.06,0 0.08,0.04 0.3,0.68 0.68,1.33 1.13,1.92 v 0.04 c -1.1,-0.28 -2.07,-0.91 -2.79,-1.79 -0.12,-0.12 -0.2,0 -0.12,0.12 0.78,1.04 1.9,1.77 3.17,2.03 z"
       style="fill:#e92322"
       sodipodi:nodetypes="ccccccccccsscccccccscccccccccccccccccccccccccccccsscccccssccccsssscscccccsscccccccccccccccccccccccscssccccsccccccccscccccccccccccccccccccccsccccsssccccccsscccccccccscccccccscccccccccccccccccccccccccccsccccccccscccccccccccccccccccscccscccccccccccccsccscccccssccccccccccccccccccsscccccccccsccccccccccccccccccscssccccsscccsccsscccccccccccccsccccssccssssccssccccccccccccccccccccccccccccccsscccsscccccccsssscccccccccccccccccccccccccccccccccccsccccccccccccccccccccccccscccccccccccscccccscccccccccccsccsccccccccccsscccccccccccccsscccccccccccsccccccsscccccccccccccccccccssccccccccccccccccccccccccccsccccccccccccccsscccccccccccccccccsscccssccccccccccccssccccccccccccccssccccccccsccssccccccscccccssccccccscccccssccccccccccccccccccscccccssscccccccccccccccccsscccccccccccccccccccccccccccccssccccssccccccccccccccccccccccccccccccsccccssccccccsccccccccccccccccccccccccccccccccccccccc" /><rect
       style="opacity:1;fill:#e92322;fill-opacity:1;fill-rule:evenodd;stroke:none;stroke-width:0;stroke-linecap:round;stroke-linejoin:round;stroke-dasharray:none;stroke-opacity:1"
       id="rect99"
       width="0.80078125"
       height="0.4375"
       x="29.972879"
       y="40.539776"
       ry="0.20219555" /></g><path
     style="opacity:1;fill:#ffffff;fill-opacity:1;fill-rule:evenodd;stroke:none;stroke-width:0;stroke-linecap:round;stroke-linejoin:round;stroke-dasharray:none;stroke-opacity:1"
     d="m 27.77709,62.291091 c -0.04506,-0.228764 -0.105795,-0.553697 -0.134969,-0.722073 l -0.05304,-0.30614 -0.484646,0.06271 c -0.925427,0.119739 -1.029689,0.104071 -1.087742,-0.163458 -0.167406,-0.771475 -0.0088,-2.312785 0.356387,-3.463189 l 0.118529,-0.373393 -0.659353,-0.51486 c -0.849527,-0.663359 -1.433264,-1.31407 -1.815357,-2.023643 -0.167943,-0.311879 -0.292723,-0.577957 -0.27729,-0.591286 0.01543,-0.01333 0.304359,-0.174754 0.642058,-0.358725 0.337699,-0.18397 0.613998,-0.367811 0.613998,-0.408534 0,-0.04072 -0.12478,-0.321823 -0.277289,-0.624666 -0.15251,-0.302843 -0.27729,-0.588922 -0.27729,-0.635731 0,-0.14129 1.108775,-0.619657 1.742384,-0.751729 0.326487,-0.06806 0.97605,-0.145617 1.443474,-0.172361 l 0.849861,-0.04863 0.129519,-0.403966 c 0.270403,-0.843383 0.914966,-2.015835 1.398053,-2.543039 0.259539,-0.283241 0.514635,-0.514983 0.56688,-0.514983 0.05224,0 0.271909,0.180937 0.488141,0.402083 0.616067,0.630065 0.600281,0.629162 1.184908,0.06778 0.296932,-0.285129 0.555102,-0.4716 0.61899,-0.447084 0.194143,0.0745 0.845168,0.897357 1.193321,1.508286 0.186126,0.326609 0.440996,0.895973 0.566376,1.265254 l 0.227964,0.671419 0.796401,0.05517 c 1.351002,0.09359 2.372136,0.347287 3.035733,0.754233 l 0.258694,0.158642 -0.278501,0.553029 c -0.153175,0.304166 -0.278199,0.616309 -0.277829,0.693651 4.47e-4,0.09373 0.198605,0.246083 0.594191,0.456854 0.326436,0.173926 0.593521,0.347193 0.593521,0.385037 0,0.03784 -0.114682,0.287707 -0.254848,0.555251 -0.247666,0.472734 -1.430354,1.748893 -2.142008,2.311296 l -0.297379,0.235012 0.191115,0.64447 c 0.282868,0.953884 0.394216,1.769939 0.336856,2.468794 -0.08231,1.002827 -0.07612,0.993322 -0.598084,0.919225 -0.244357,-0.03469 -0.584221,-0.0649 -0.755251,-0.06714 l -0.310963,-0.0041 -0.09814,0.578668 c -0.130458,0.769243 -0.149923,0.807779 -0.408005,0.807779 -0.666662,0 -1.90253,-0.507188 -2.937966,-1.205714 -0.320008,-0.215883 -0.631535,-0.371621 -0.6948,-0.347344 -0.06308,0.02421 -0.33243,0.191875 -0.598558,0.372599 -0.937296,0.636506 -2.30014,1.180459 -2.957572,1.180459 -0.164234,0 -0.199112,-0.05363 -0.270473,-0.415934 z m 0.609288,-1.620329 c 0.03188,-0.210879 -0.163453,-0.357532 -0.434773,-0.326422 -0.186983,0.02144 -0.226647,0.0669 -0.247538,0.283692 -0.02012,0.208784 0.01019,0.271743 0.158451,0.329172 0.223508,0.08658 0.489452,-0.05884 0.52386,-0.286442 z m 7.224654,0.175492 c 0.131723,-0.158716 0.03833,-0.493425 -0.154788,-0.554717 -0.351897,-0.111687 -0.639187,0.321361 -0.383092,0.577456 0.131337,0.131336 0.420141,0.119128 0.53788,-0.02274 z m -3.69148,-0.381257 c 0.09366,-0.06848 0.131873,-0.181184 0.114175,-0.336709 -0.02156,-0.189462 -0.0688,-0.238609 -0.249265,-0.259301 -0.398725,-0.04572 -0.597116,0.303593 -0.326258,0.574451 0.151455,0.151456 0.275759,0.157264 0.461348,0.02156 z m -3.259004,-0.325018 c 0.06108,-0.06108 0.696441,-0.915837 1.411913,-1.899461 l 1.300858,-1.788406 0.338466,-0.002 0.338466,-0.002 1.186327,1.604317 c 0.65248,0.882375 1.278716,1.722197 1.391635,1.866272 0.221542,0.282667 0.472453,0.311103 0.463015,0.05248 -0.0031,-0.08579 -0.586826,-0.968031 -1.297102,-1.960539 l -1.291409,-1.804561 0.09798,-0.349938 0.09798,-0.349937 2.189444,-0.737234 c 1.565696,-0.527205 2.189444,-0.77109 2.189444,-0.856073 0,-0.06536 -0.08344,-0.130654 -0.185433,-0.145095 -0.101989,-0.01444 -1.142637,0.285561 -2.312552,0.666672 l -2.127119,0.692928 -0.282085,-0.215156 -0.282085,-0.215157 v -2.378544 c 0,-2.222624 -0.0091,-2.376796 -0.138645,-2.351871 -0.127762,0.02458 -0.140291,0.211342 -0.159625,2.379439 l -0.02098,2.352767 -0.263787,0.2012 c -0.145083,0.11066 -0.297768,0.2012 -0.339299,0.2012 -0.04153,0 -1.018583,-0.302656 -2.171225,-0.672569 -1.152642,-0.369913 -2.178408,-0.672951 -2.27948,-0.673417 -0.143754,-6.64e-4 -0.178255,0.03661 -0.158451,0.171195 0.02211,0.150229 0.298644,0.263244 2.180907,0.891288 1.185575,0.395584 2.189956,0.754895 2.231957,0.798469 0.042,0.04357 0.09876,0.204006 0.126122,0.356515 0.0469,0.261355 -0.02559,0.382004 -1.261344,2.099478 -0.721105,1.002203 -1.311145,1.878635 -1.3112,1.947627 -1.92e-4,0.241322 0.159272,0.298062 0.337313,0.120021 z m 1.785832,0.01598 c 0.140733,-0.140733 0.11569,-0.337066 -0.0637,-0.499413 -0.22973,-0.207903 -0.554257,-0.0541 -0.554257,0.262678 0,0.124394 0.02377,0.249939 0.05282,0.278988 0.08753,0.08753 0.463464,0.05942 0.565142,-0.04225 z m 3.104788,-0.02274 c 0.131723,-0.158716 0.03833,-0.493425 -0.154789,-0.554717 -0.351897,-0.111687 -0.639186,0.321361 -0.383091,0.577456 0.131337,0.131337 0.420141,0.119128 0.53788,-0.02274 z m -1.67949,-1.891362 c 0.02219,-0.67551 -0.05847,-0.98305 -0.230047,-0.877013 -0.03864,0.02388 -0.07025,0.400441 -0.07025,0.836805 0,0.712889 0.01407,0.790699 0.138645,0.766882 0.117425,-0.02245 0.142165,-0.133667 0.16165,-0.726674 z m -3.501645,0.385047 c 0.120219,-0.183476 0.120219,-0.212651 0,-0.396127 -0.156814,-0.23933 -0.310851,-0.251013 -0.522251,-0.03961 -0.190736,0.190736 -0.193835,0.231128 -0.03512,0.457725 0.16283,0.232474 0.396688,0.223249 0.557371,-0.02199 z m 2.617923,-0.542257 c 0.146643,-0.38539 0.246672,-0.732992 0.222286,-0.772449 -0.124339,-0.201184 -0.277693,-0.01643 -0.502848,0.605818 -0.279467,0.772345 -0.299798,0.929372 -0.115615,0.892955 0.08124,-0.01606 0.228975,-0.286904 0.396177,-0.726324 z m 1.930261,0.635359 c 0,-0.09304 -0.285545,-0.971448 -0.435887,-1.340904 -0.07529,-0.185019 -0.277143,-0.177464 -0.277143,0.01037 0,0.08196 0.09046,0.393911 0.201023,0.693223 0.110562,0.299313 0.216398,0.58877 0.23519,0.643237 0.04562,0.132226 0.276817,0.127274 0.276817,-0.0059 z m 2.710888,-0.17848 c 0.113285,-0.248633 0.0091,-0.457022 -0.247541,-0.495088 -0.22396,-0.03322 -0.403482,0.116564 -0.403482,0.336645 0,0.390748 0.490758,0.510186 0.651023,0.158443 z m -5.840687,-1.233424 c 0.465055,-0.372671 0.666365,-0.701449 0.429496,-0.701449 -0.100372,0 -1.260974,0.945606 -1.260974,1.027385 0,0.101554 0.109356,0.166388 0.213342,0.126485 0.05653,-0.02169 0.334691,-0.225282 0.618136,-0.452421 z m 4.634641,0.308677 c -4.97e-4,-0.110686 -1.130433,-1.010126 -1.268988,-1.010126 -0.22349,0 0.0088,0.342323 0.477176,0.70318 0.507076,0.390681 0.792684,0.501398 0.791812,0.306946 z m -6.730885,-0.381635 c 0.109881,-0.205313 -0.08795,-0.549266 -0.315913,-0.549266 -0.160439,0 -0.39996,0.196289 -0.39996,0.32777 0,0.371538 0.545281,0.540252 0.715873,0.221496 z m 8.58747,0.03927 c 0.180786,-0.180785 0.152737,-0.407926 -0.06825,-0.552724 -0.266594,-0.174679 -0.520279,-0.03818 -0.520279,0.279944 0,0.350413 0.349097,0.512216 0.588532,0.27278 z m -6.927724,-0.73279 c 0.639631,-0.214926 0.845993,-0.36471 0.621278,-0.450942 -0.181322,-0.06958 -1.449037,0.396223 -1.477614,0.542927 -0.03504,0.1799 0.08584,0.166915 0.856336,-0.09199 z m 5.530344,0.05214 c 0.03176,-0.163613 -1.378212,-0.604627 -1.510409,-0.47243 -0.134274,0.134274 -0.0094,0.211901 0.695133,0.431954 0.688617,0.215098 0.780498,0.21966 0.815276,0.04048 z m -7.425246,-0.868605 c 0.142886,-0.266985 -0.02182,-0.544557 -0.32312,-0.544557 -0.255922,0 -0.419004,0.234046 -0.331223,0.475353 0.102714,0.282359 0.516826,0.326157 0.654343,0.0692 z m 9.060303,-0.03525 c 0.238192,-0.238192 0.0765,-0.588533 -0.27163,-0.588533 -0.319287,0 -0.456088,0.253205 -0.281094,0.520279 0.144798,0.22099 0.371939,0.249039 0.552724,0.06825 z M 29.947259,55.57673 c 0,-0.09644 -0.153081,-0.123095 -0.812062,-0.141417 -0.670773,-0.01865 -0.812062,-0.0024 -0.812062,0.09352 0,0.151185 0.216813,0.189981 0.99032,0.177203 0.505911,-0.0084 0.633804,-0.03445 0.633804,-0.129308 z m 4.614889,0.0801 c 0.386937,-6.81e-4 0.495159,-0.02685 0.495159,-0.11971 0,-0.09766 -0.140326,-0.118839 -0.787579,-0.118839 -0.439594,0 -0.809215,0.03501 -0.836545,0.07923 -0.09907,0.160296 0.05941,0.255198 0.346781,0.207668 0.157863,-0.02611 0.509846,-0.04787 0.782184,-0.04834 z m -4.337599,-1.104401 c 0,-0.104136 -0.18511,-0.268197 -0.581035,-0.514967 -0.606631,-0.378096 -0.794867,-0.440111 -0.751803,-0.247685 0.02867,0.128084 1.079233,0.903674 1.233806,0.910866 0.05447,0.0025 0.09903,-0.06416 0.09903,-0.148214 z m 3.664181,-0.247475 c 0.294125,-0.217141 0.534773,-0.447639 0.534773,-0.512218 0,-0.06458 -0.02467,-0.117417 -0.05483,-0.117417 -0.136198,0 -1.292008,0.823986 -1.292008,0.921083 0,0.203387 0.275938,0.104354 0.812062,-0.291448 z m -3.188828,-0.20017 c 0,-0.164206 -0.802902,-1.21566 -0.9309,-1.219077 -0.195068,-0.0052 -0.09251,0.264063 0.304595,0.799728 0.388173,0.523618 0.626305,0.683061 0.626305,0.419349 z m 2.608015,-0.449271 c 0.40626,-0.582182 0.463824,-0.725232 0.326092,-0.810355 -0.09121,-0.05637 -0.953468,1.084614 -0.953468,1.261685 0,0.27129 0.247224,0.09344 0.627376,-0.45133 z m -7.327595,0.291437 c 0.180786,-0.180785 0.152737,-0.407926 -0.06825,-0.552724 -0.355605,-0.233002 -0.714609,0.133235 -0.480637,0.49032 0.141323,0.215687 0.369649,0.241645 0.54889,0.0624 z m 11.889784,-0.03428 c 0.118725,-0.13119 0.128035,-0.193126 0.05359,-0.356515 -0.156026,-0.34244 -0.648073,-0.221893 -0.648073,0.158773 0,0.353847 0.348348,0.469717 0.594483,0.197742 z m -5.361465,-0.534451 c 0.222578,-0.84172 0.231736,-0.9309 0.0956,-0.9309 -0.123084,0 -0.589881,1.349196 -0.510971,1.476874 0.125679,0.203354 0.265992,0.01892 0.415369,-0.545974 z m -1.223178,0.411229 c -0.0047,-0.04099 -0.09161,-0.368645 -0.193033,-0.728131 -0.148958,-0.527974 -0.213672,-0.653611 -0.336667,-0.653611 -0.170741,0 -0.168048,0.02347 0.111935,0.975396 0.124101,0.42194 0.187918,0.533244 0.29256,0.510261 0.07361,-0.01617 0.129952,-0.06293 0.125205,-0.103915 z m -3.194796,-0.433822 c 0.296841,-0.158865 0.144744,-0.631017 -0.203272,-0.631017 -0.339051,0 -0.499887,0.463199 -0.217871,0.627458 0.177331,0.103286 0.233908,0.103764 0.421143,0.0036 z m 7.67967,-0.155664 c 0.163018,-0.304602 -0.174782,-0.636214 -0.481092,-0.472282 -0.149154,0.07982 -0.215303,0.462509 -0.0999,0.577916 0.118019,0.118019 0.498295,0.04888 0.580987,-0.105634 z m -6.570512,-1.03272 c 0.29684,-0.158864 0.144744,-0.631017 -0.203273,-0.631017 -0.21236,0 -0.356515,0.144155 -0.356515,0.356515 0,0.313198 0.254394,0.437944 0.559788,0.274502 z m 5.509856,-0.123258 c 0.03765,-0.15003 0.007,-0.249809 -0.113971,-0.370763 -0.141277,-0.141278 -0.194959,-0.152063 -0.366913,-0.07372 -0.147276,0.0671 -0.201422,0.152573 -0.201422,0.317945 0,0.289025 0.04747,0.331805 0.36821,0.331805 0.216466,0 0.271623,-0.03605 0.314096,-0.205271 z m -4.136963,-0.531472 c 0.09366,-0.06848 0.131873,-0.181183 0.114174,-0.336709 -0.02452,-0.21548 -0.0514,-0.233769 -0.343505,-0.233769 -0.288491,0 -0.319191,0.01996 -0.342433,0.222661 -0.04483,0.390993 0.259518,0.576137 0.571764,0.347817 z m 2.588384,0.02093 c 0.185421,-0.09923 0.20085,-0.413641 0.02875,-0.585745 -0.237743,-0.237744 -0.588533,-0.07653 -0.588533,0.270481 0,0.326943 0.262125,0.474568 0.559787,0.315264 z m -1.128447,-2.081674 c 0.03098,-0.270154 -0.103763,-0.450756 -0.336289,-0.450756 -0.23075,0 -0.36266,0.145043 -0.36266,0.398768 0,0.278926 0.0622,0.326093 0.393297,0.298226 0.241306,-0.02031 0.283658,-0.05443 0.305652,-0.246238 z"
     id="path55"
     transform="translate(-1.3669638,-3.1828818)" /><path
     style="opacity:1;fill:#ffffff;fill-opacity:1;fill-rule:evenodd;stroke:none;stroke-width:0;stroke-linecap:round;stroke-linejoin:round;stroke-dasharray:none;stroke-opacity:1"
     d="M 16.954268,58.936652 C 13.731456,58.619273 11.514772,57.820339 9.7574204,56.342774 L 9.5324211,56.153596 9.8762587,55.873584 c 1.6321773,-1.329203 4.2608363,-2.528094 6.6541103,-3.034838 1.301049,-0.27548 3.250092,-0.349511 4.316702,-0.163962 0.818938,0.142463 1.82745,0.441394 2.512216,0.74464 l 0.463102,0.205082 -0.294367,0.15102 c -0.276683,0.141947 -0.291938,0.169127 -0.253938,0.452445 0.05109,0.380908 0.607004,1.322599 1.097777,1.859583 l 0.376209,0.411633 -0.279369,0.101021 -0.279369,0.101021 -0.833259,-0.880951 c -1.290162,-1.364006 -3.113944,-2.768427 -3.113944,-2.397922 0,0.03517 0.240647,0.239153 0.534772,0.453297 0.923194,0.672149 3.079451,2.872096 2.942535,3.002155 -0.05862,0.05568 -1.932773,0.503549 -2.330246,0.556861 l -0.397837,0.05336 -0.504951,-0.77123 c -0.610736,-0.9328 -1.635246,-1.976585 -2.499306,-2.546328 -0.600746,-0.396119 -0.834764,-0.494544 -0.834764,-0.351088 0,0.03567 0.288813,0.292335 0.641806,0.570377 0.352994,0.278043 0.872745,0.756897 1.155003,1.064119 0.504515,0.549138 1.584344,2.076213 1.516272,2.144285 -0.05627,0.05627 -2.368809,0.169212 -2.76533,0.135057 -0.309185,-0.02663 -0.384928,-0.06864 -0.508166,-0.281835 -0.07965,-0.137796 -0.384507,-0.571401 -0.677452,-0.963568 -0.809863,-1.084165 -2.293478,-2.465055 -2.293478,-2.134678 0,0.02421 0.349961,0.39179 0.777692,0.816837 0.903968,0.898297 2.034294,2.487025 1.802091,2.532927 -0.173562,0.03431 -2.151517,-0.216396 -2.372496,-0.300714 -0.09222,-0.03519 -0.319211,-0.243908 -0.504422,-0.463822 -0.432908,-0.514021 -1.589893,-1.440869 -1.798639,-1.440869 -0.115525,0 0.09085,0.236855 0.733291,0.841607 0.491734,0.462883 0.877801,0.857867 0.857926,0.877741 -0.04311,0.04311 -1.637202,-0.377349 -2.300547,-0.606787 -0.257372,-0.08902 -0.49802,-0.161854 -0.534772,-0.161854 -0.125067,0 -0.06741,0.220497 0.07182,0.274647 4.362836,1.696842 9.021942,1.812025 13.382368,0.33084 l 0.805313,-0.273554 0.1652,0.175848 c 0.09086,0.09672 0.165201,0.199891 0.165201,0.229277 0,0.103284 -1.291979,0.701542 -2.087488,0.966624 -0.867028,0.288912 -2.00576,0.539028 -3.030318,0.665591 -0.725402,0.08961 -2.918377,0.166498 -3.398941,0.119172 z"
     id="path56"
     transform="translate(-1.3669638,-3.1828818)" /><path
     style="opacity:1;fill:#ffffff;fill-opacity:1;fill-rule:evenodd;stroke:none;stroke-width:0;stroke-linecap:round;stroke-linejoin:round;stroke-dasharray:none;stroke-opacity:1"
     d="m 27.819393,62.568381 c -0.02149,-0.07626 -0.0811,-0.400185 -0.132484,-0.719845 l -0.09342,-0.5812 -0.486852,0.06242 c -0.91913,0.117846 -1.031759,0.100524 -1.089948,-0.16763 -0.164472,-0.757955 -0.02551,-2.21774 0.318577,-3.346547 l 0.150712,-0.494429 -0.65654,-0.512663 c -0.852134,-0.665395 -1.462549,-1.346445 -1.824993,-2.036178 -0.160134,-0.304737 -0.27892,-0.566082 -0.263967,-0.580767 0.01495,-0.01469 0.303486,-0.175593 0.641185,-0.357573 0.337699,-0.18198 0.613998,-0.364317 0.613998,-0.405194 0,-0.04088 -0.12478,-0.322102 -0.277289,-0.624945 -0.15251,-0.302843 -0.27729,-0.588922 -0.27729,-0.635731 0,-0.14129 1.108775,-0.619657 1.742384,-0.751729 0.326487,-0.06806 0.97605,-0.145617 1.443474,-0.172361 l 0.849861,-0.04863 0.129783,-0.403966 c 0.279354,-0.869525 0.897287,-1.996829 1.388285,-2.532667 0.264766,-0.288945 0.524139,-0.525355 0.576384,-0.525355 0.05224,0 0.271909,0.180937 0.488141,0.402083 0.616067,0.630065 0.600281,0.629162 1.184908,0.06778 0.317628,-0.305002 0.55318,-0.472337 0.625714,-0.444503 0.06398,0.02455 0.317637,0.287363 0.563685,0.584027 0.465809,0.561634 1.037656,1.64533 1.271945,2.410437 l 0.136264,0.444988 0.797396,0.05492 c 1.398508,0.09632 2.455082,0.368294 3.120622,0.80328 l 0.177086,0.11574 -0.288479,0.583007 c -0.158664,0.320654 -0.267718,0.637112 -0.242342,0.703239 0.02538,0.06613 0.298325,0.256445 0.606554,0.422927 0.308228,0.166481 0.560416,0.334765 0.560416,0.373964 0,0.0392 -0.114682,0.290169 -0.254848,0.557713 -0.251689,0.480411 -1.469026,1.793877 -2.14532,2.314729 l -0.300691,0.231579 0.123687,0.350223 c 0.199079,0.563696 0.438082,1.853898 0.438082,2.364883 0,0.446396 -0.119078,1.27282 -0.194226,1.347968 -0.01906,0.01906 -0.343841,-0.0092 -0.721732,-0.06287 -0.795465,-0.112917 -0.783737,-0.120259 -0.866541,0.542479 -0.08267,0.661656 -0.156979,0.805045 -0.41721,0.805045 -0.659277,0 -1.940598,-0.522406 -2.922436,-1.191503 -0.317187,-0.216154 -0.602812,-0.393008 -0.634724,-0.393008 -0.03191,0 -0.300509,0.162692 -0.596884,0.361538 -1.3253,0.88918 -3.145382,1.494396 -3.260928,1.084329 z m 0.566985,-1.897619 c 0.03188,-0.210879 -0.163453,-0.357532 -0.434773,-0.326422 -0.186983,0.02144 -0.226647,0.0669 -0.247538,0.283692 -0.02012,0.208784 0.01019,0.271743 0.158451,0.329172 0.223508,0.08658 0.489452,-0.05884 0.52386,-0.286442 z m 7.224654,0.175492 c 0.123006,-0.148213 0.04481,-0.482174 -0.128462,-0.548665 -0.207903,-0.07978 -0.420764,0.02677 -0.473538,0.237043 -0.05974,0.238034 0.08536,0.429431 0.325565,0.429431 0.09826,0 0.22266,-0.05301 0.276435,-0.117809 z m -3.717539,-0.360331 c 0.296841,-0.158865 0.144745,-0.631018 -0.203272,-0.631018 -0.333631,0 -0.471311,0.349239 -0.232017,0.588533 0.145991,0.145991 0.227094,0.153907 0.435289,0.04248 z m -3.239308,-0.341802 c 0.05758,-0.0588 0.692941,-0.913499 1.411912,-1.899326 l 1.307222,-1.792412 0.356515,0.0018 0.356515,0.0018 1.336605,1.824451 c 0.735132,1.003449 1.388169,1.844239 1.451192,1.868423 0.190856,0.07324 0.289667,-0.09423 0.180117,-0.305271 -0.05332,-0.10272 -0.650225,-0.965109 -1.326452,-1.916419 l -1.229503,-1.729655 0.111729,-0.359778 0.11173,-0.359778 1.979832,-0.651664 c 2.16258,-0.711815 2.433581,-0.819097 2.391613,-0.94678 -0.06337,-0.192806 -0.465577,-0.103456 -2.503969,0.55626 l -2.136918,0.691604 -0.28202,-0.215107 -0.28202,-0.215107 v -2.328447 c 0,-2.27102 -0.04015,-2.652064 -0.245321,-2.328141 -0.03804,0.06005 -0.0697,1.130994 -0.07037,2.379874 l -0.0012,2.270692 -0.243755,0.205107 c -0.134066,0.112808 -0.290515,0.205106 -0.347665,0.205106 -0.05715,0 -1.043743,-0.302832 -2.19243,-0.67296 -1.148687,-0.370128 -2.148808,-0.673166 -2.222491,-0.673417 -0.182168,-6.22e-4 -0.256204,0.140816 -0.144294,0.275659 0.05054,0.0609 1.025114,0.420123 2.165717,0.798278 1.140603,0.378154 2.119584,0.730315 2.175513,0.782579 0.05593,0.05226 0.121178,0.217337 0.144998,0.366829 0.04005,0.251366 -0.05314,0.405838 -1.239385,2.054378 -0.705481,0.980416 -1.300404,1.827139 -1.322051,1.881607 -0.0505,0.127065 0.02914,0.336708 0.127901,0.336708 0.04183,0 0.123164,-0.04811 0.180744,-0.106912 z m 1.792195,0.01184 c 0.152127,-0.152128 0.110485,-0.36653 -0.09768,-0.502926 -0.341769,-0.223936 -0.629124,0.06372 -0.47219,0.472678 0.05681,0.148057 0.43214,0.167978 0.56987,0.03025 z m 3.107244,-0.06637 c 0.181847,-0.339785 -0.134178,-0.65581 -0.473963,-0.473963 -0.178451,0.0955 -0.214854,0.391855 -0.06637,0.540336 0.148481,0.14848 0.444832,0.112078 0.540336,-0.06637 z m -1.713428,-1.231484 c 0.09647,-0.251392 0.05202,-1.357305 -0.05823,-1.448805 -0.176657,-0.146611 -0.210581,-0.01853 -0.210581,0.795072 0,0.61308 0.02351,0.779051 0.110362,0.779051 0.0607,0 0.132002,-0.05639 0.158451,-0.125318 z m -3.517061,-0.191584 c 0.08715,-0.08715 0.158451,-0.194102 0.158451,-0.237676 0,-0.102751 -0.293377,-0.396128 -0.396127,-0.396128 -0.102751,0 -0.396128,0.293377 -0.396128,0.396128 0,0.10275 0.293377,0.396127 0.396128,0.396127 0.04357,0 0.150528,-0.0713 0.237676,-0.158451 z m 2.452748,-0.05942 c 0.244693,-0.525674 0.464994,-1.286472 0.386556,-1.334949 -0.04489,-0.02774 -0.128097,-0.0017 -0.184908,0.05797 -0.112836,0.118421 -0.515306,1.196819 -0.515306,1.380737 0,0.194166 0.206828,0.125751 0.313658,-0.103754 z m 2.10855,0.112411 c 0.06388,-0.166457 -0.440111,-1.479052 -0.5679,-1.479052 -0.169313,0 -0.135362,0.240471 0.133266,0.943938 0.236085,0.618242 0.349264,0.757586 0.434634,0.535114 z m 2.732817,-0.142239 c 0.12728,-0.237826 -0.02205,-0.544557 -0.26511,-0.544557 -0.228606,0 -0.374058,0.138631 -0.374058,0.356515 0,0.359033 0.473158,0.498235 0.639168,0.188042 z m -6.105731,-1.06605 c 0.609779,-0.482805 0.792255,-0.663919 0.792255,-0.78634 0,-0.206588 -0.1566,-0.130733 -0.759277,0.367784 -0.582702,0.481994 -0.636704,0.547591 -0.53474,0.649555 0.0851,0.0851 0.126749,0.06593 0.501762,-0.230999 z m 4.869605,0.129842 c 0.04542,-0.07349 -0.756498,-0.789126 -1.075704,-0.95996 -0.1871,-0.100133 -0.268408,-0.05439 -0.203583,0.114541 0.05563,0.144963 1.009894,0.913822 1.138732,0.917485 0.0519,0.0015 0.115146,-0.03095 0.140555,-0.07207 z m -6.68895,-0.405918 c 0.109881,-0.205313 -0.08795,-0.549266 -0.315913,-0.549266 -0.160439,0 -0.39996,0.196289 -0.39996,0.32777 0,0.371538 0.545281,0.540252 0.715873,0.221496 z m 8.540396,0.03728 c 0.341762,-0.239379 0.03227,-0.73494 -0.363201,-0.581558 -0.223144,0.08655 -0.249471,0.500244 -0.03961,0.622475 0.183496,0.106876 0.193221,0.105888 0.402814,-0.04092 z m -6.958998,-0.706618 c 0.746378,-0.250234 0.861075,-0.318418 0.739738,-0.439755 -0.06862,-0.06862 -0.166135,-0.06681 -0.395466,0.0073 -0.786965,0.254421 -1.136258,0.413836 -1.136258,0.51858 0,0.15537 0.105964,0.143843 0.791986,-0.08616 z m 5.585671,0.03425 c 0,-0.128102 -1.275975,-0.57692 -1.450149,-0.510083 -0.232082,0.08906 -0.01436,0.245071 0.624313,0.447359 0.718923,0.227706 0.825836,0.235826 0.825836,0.06272 z M 27.406382,55.76913 c 0.251198,-0.251197 0.05562,-0.618308 -0.306603,-0.575522 -0.284778,0.03364 -0.398445,0.294622 -0.231886,0.532418 0.138952,0.198382 0.365109,0.216485 0.538489,0.0431 z m 9.120402,-0.147479 c 0.185052,-0.282425 0.03424,-0.538375 -0.297616,-0.505099 -0.303419,0.03042 -0.423007,0.283728 -0.250337,0.530249 0.156195,0.222998 0.392466,0.212154 0.547953,-0.02515 z m -6.579525,-0.04492 c 0,-0.09644 -0.153081,-0.123095 -0.812062,-0.141417 -0.670773,-0.01865 -0.812062,-0.0024 -0.812062,0.09352 0,0.151185 0.216813,0.189981 0.99032,0.177203 0.505911,-0.0084 0.633804,-0.03445 0.633804,-0.129308 z m 4.604985,0.07923 c 0.396128,0 0.505063,-0.02563 0.505063,-0.118838 0,-0.09766 -0.140326,-0.118839 -0.787579,-0.118839 -0.492393,0 -0.807984,0.03301 -0.842019,0.08808 -0.08204,0.132746 0.134472,0.238518 0.391699,0.191355 0.125275,-0.02297 0.455052,-0.04176 0.732836,-0.04176 z m -4.343725,-1.124975 c 0.02301,-0.118592 -1.047323,-0.855664 -1.242549,-0.855664 -0.222575,0 -0.03678,0.232199 0.488157,0.610091 0.582661,0.419443 0.712452,0.461693 0.754392,0.245573 z m 3.670521,-0.229359 c 0.299455,-0.221994 0.544463,-0.453729 0.544463,-0.514966 0,-0.06124 -0.02467,-0.111339 -0.05483,-0.111339 -0.136198,0 -1.292008,0.823986 -1.292008,0.921083 0,0.203899 0.25711,0.109442 0.802372,-0.294778 z m -3.179138,-0.201609 c 0,-0.147737 -0.838292,-1.216951 -0.954122,-1.216951 -0.171016,0 -0.05316,0.288456 0.327817,0.802371 0.390649,0.526957 0.626305,0.682948 0.626305,0.41458 z m 2.618308,-0.470035 c 0.241799,-0.35833 0.385962,-0.649062 0.357992,-0.721953 -0.06585,-0.171609 -0.194252,-0.05042 -0.644087,0.607939 -0.333722,0.48842 -0.394011,0.713932 -0.190862,0.713932 0.03967,0 0.254305,-0.269963 0.476957,-0.599918 z m -7.337367,0.288694 c 0.257997,-0.285084 -0.08496,-0.745239 -0.421281,-0.565245 -0.218578,0.116979 -0.267261,0.318777 -0.12813,0.531117 0.148479,0.226609 0.363151,0.239943 0.549411,0.03413 z m 11.892776,-0.03998 c 0.09824,-0.149938 0.106828,-0.229126 0.03865,-0.356515 -0.163732,-0.305935 -0.636648,-0.162755 -0.636648,0.192751 0,0.371684 0.39151,0.478901 0.597996,0.163764 z M 32.465313,53.51093 c 0.186834,-0.568373 0.261167,-1.103227 0.153323,-1.103227 -0.133202,0 -0.607066,1.384291 -0.521344,1.522993 0.09304,0.150545 0.233038,-0.0091 0.368021,-0.419766 z m -1.217748,0.184189 c -0.01307,-0.411773 -0.338767,-1.244033 -0.498801,-1.274601 -0.168136,-0.03212 -0.164217,-1.66e-4 0.117479,0.957698 0.10108,0.343704 0.198532,0.534773 0.272754,0.534773 0.07484,0 0.11305,-0.07668 0.108568,-0.21787 z m -3.156898,-0.339496 c 0.296841,-0.158865 0.144744,-0.631017 -0.203272,-0.631017 -0.333631,0 -0.471312,0.349238 -0.232018,0.588532 0.145991,0.145992 0.227095,0.153907 0.43529,0.04248 z m 7.67967,-0.155664 c 0.163018,-0.304602 -0.174782,-0.636214 -0.481092,-0.472282 -0.149154,0.07982 -0.215303,0.462509 -0.0999,0.577916 0.118019,0.118019 0.498295,0.04888 0.580987,-0.105634 z M 29.22857,52.124755 c 0.239294,-0.239294 0.101614,-0.588533 -0.232018,-0.588533 -0.21236,0 -0.356515,0.144155 -0.356515,0.356515 0,0.333631 0.349239,0.471312 0.588533,0.232018 z m 5.416764,0.02943 c 0.140733,-0.140733 0.11569,-0.337065 -0.0637,-0.499413 -0.13119,-0.118725 -0.193125,-0.128035 -0.356515,-0.05359 -0.194559,0.08865 -0.246548,0.270252 -0.149653,0.522755 0.05681,0.148057 0.43214,0.167978 0.56987,0.03025 z m -4.072616,-0.641673 c 0.09366,-0.06848 0.131873,-0.181183 0.114174,-0.336709 -0.02452,-0.21548 -0.0514,-0.233769 -0.343505,-0.233769 -0.288491,0 -0.319191,0.01996 -0.342433,0.222661 -0.04483,0.390993 0.259518,0.576137 0.571764,0.347817 z m 2.61713,-0.02156 c 0.06847,-0.06847 0.124497,-0.190708 0.124497,-0.271631 0,-0.157293 -0.19762,-0.396128 -0.327769,-0.396128 -0.211495,0 -0.385261,0.178149 -0.385261,0.394979 0,0.350412 0.349097,0.512216 0.588533,0.27278 z m -1.26843,-1.825005 c 0.07461,-0.02863 0.125318,-0.141524 0.125318,-0.278988 0,-0.447375 -0.634227,-0.515381 -0.699489,-0.075 -0.01434,0.09676 -0.0065,0.226813 0.01732,0.289005 0.04462,0.116282 0.334898,0.150159 0.556851,0.06499 z"
     id="path57"
     transform="translate(-1.3669638,-3.1828818)" /><path
     style="opacity:1;fill:#ffffff;fill-opacity:1;fill-rule:evenodd;stroke:none;stroke-width:0;stroke-linecap:round;stroke-linejoin:round;stroke-dasharray:none;stroke-opacity:1"
     d="m 20.598644,61.079923 c -0.261444,-0.148474 -0.468006,-0.29187 -0.459026,-0.318658 0.009,-0.02679 0.739836,-0.413305 1.624124,-0.858929 1.585056,-0.798766 2.904048,-1.550514 3.655615,-2.083487 0.211245,-0.149805 0.401591,-0.254863 0.422991,-0.233462 0.0214,0.0214 -0.0056,0.237632 -0.05992,0.480515 -0.09149,0.40881 -0.141079,0.476555 -0.667746,0.9122 -1.081948,0.894956 -3.52024,2.388522 -3.880414,2.376931 -0.08815,-0.0028 -0.374183,-0.126636 -0.635627,-0.27511 z"
     id="path58"
     transform="translate(-1.3669638,-3.1828818)" /><path
     style="opacity:1;fill:#ffffff;fill-opacity:1;fill-rule:evenodd;stroke:none;stroke-width:0;stroke-linecap:round;stroke-linejoin:round;stroke-dasharray:none;stroke-opacity:1"
     d=""
     id="path59"
     transform="translate(-1.3669638,-3.1828818)" /><path
     style="opacity:1;fill:#ffffff;fill-opacity:1;fill-rule:evenodd;stroke:none;stroke-width:0;stroke-linecap:round;stroke-linejoin:round;stroke-dasharray:none;stroke-opacity:1"
     d=""
     id="path60"
     transform="translate(-1.3669638,-3.1828818)" /><path
     style="opacity:1;fill:#ffffff;fill-opacity:1;fill-rule:evenodd;stroke:none;stroke-width:0;stroke-linecap:round;stroke-linejoin:round;stroke-dasharray:none;stroke-opacity:1"
     d="M 8.6938879,54.874807 C 6.5545747,53.296497 4.8182373,51.35637 3.4567245,49.022969 l -0.2414339,-0.413777 0.293768,-0.07533 c 0.9095425,-0.233223 1.3368033,-0.282144 2.4328579,-0.278562 0.9726456,0.0032 1.3696253,0.0421 2.1867483,0.214419 1.8065042,0.380954 3.4214522,1.057641 4.9435512,2.07142 0.822854,0.548053 2.391981,1.917368 2.301192,2.008157 -0.02304,0.02304 -0.347525,0.140181 -0.721072,0.260307 -0.470994,0.151463 -0.687738,0.190123 -0.707109,0.126124 -0.01536,-0.05076 -0.04977,-0.252718 -0.07647,-0.448801 -0.07056,-0.518244 -0.203827,-0.884305 -0.308878,-0.848413 -0.05079,0.01735 -0.0744,0.116163 -0.05305,0.221973 0.02117,0.104885 0.03899,0.45088 0.03961,0.768878 l 0.0011,0.578179 -0.680275,0.303213 -0.680275,0.303214 -0.09116,-0.683329 c -0.162054,-1.214735 -0.49474,-2.307452 -0.702522,-2.307452 -0.09276,0 -0.107715,0.05067 -0.06429,0.217871 0.183756,0.70757 0.363587,1.733461 0.407379,2.323994 l 0.05043,0.680064 -0.612014,0.335893 c -0.336608,0.184741 -0.657236,0.31854 -0.712506,0.29733 -0.06413,-0.02461 -0.120873,-0.289741 -0.15682,-0.732774 -0.06974,-0.859503 -0.167771,-1.416068 -0.3755319,-2.132058 -0.2371017,-0.817105 -0.7019597,-1.861801 -0.8284451,-1.861801 -0.1518478,0 -0.1413776,0.0592 0.1245039,0.70397 0.326135,0.790886 0.6351724,2.079163 0.7086821,2.954266 0.034132,0.40633 0.053797,0.749755 0.043699,0.763165 -0.051875,0.06889 -1.656362,-1.012289 -1.8379965,-1.238534 -0.054468,-0.06784 -0.099032,-0.224998 -0.099032,-0.349229 0,-0.343759 -0.2264346,-1.377268 -0.4461026,-2.036133 -0.2618645,-0.785428 -0.7114492,-1.748211 -0.8163513,-1.748211 -0.1360583,0 -0.099849,0.187073 0.1635144,0.844792 0.3036451,0.758318 0.7175953,2.363805 0.6862198,2.661474 -0.021869,0.207481 -0.07122,0.172807 -0.986646,-0.693224 -0.529994,-0.501396 -1.0023763,-0.911629 -1.0497386,-0.911629 -0.2309009,0 -0.00198,0.296601 0.9240124,1.197193 1.092788,1.062812 2.006004,1.823096 2.9682799,2.471195 0.3362259,0.22645 0.6125255,0.435559 0.6139985,0.464686 0.0032,0.0631 -0.5006046,0.383214 -0.6008651,0.381791 -0.038431,-5.46e-4 -0.4001531,-0.24466 -0.8038272,-0.542476 z"
     id="path61"
     transform="translate(-1.3669638,-3.1828818)" /><path
     style="opacity:1;fill:#ffffff;fill-opacity:1;fill-rule:evenodd;stroke:none;stroke-width:0;stroke-linecap:round;stroke-linejoin:round;stroke-dasharray:none;stroke-opacity:1"
     d="m 11.646156,49.147768 c -0.43574,-0.210035 -0.83682,-0.382457 -0.891287,-0.383161 -0.06845,-8.84e-4 -0.09924,-0.154183 -0.09972,-0.496439 -0.0011,-0.786983 -0.08591,-1.327028 -0.20841,-1.327028 -0.084,0 -0.107803,0.181662 -0.107803,0.822722 v 0.822723 L 9.6100087,48.358054 C 9.2090995,48.232362 8.8258459,48.129538 8.758334,48.129556 8.6523202,48.129584 8.6393911,47.988362 8.6635,47.093707 8.694797,45.932314 8.634433,45.330673 8.4913744,45.378162 c -0.063172,0.02097 -0.098924,0.324225 -0.1103059,0.935647 -0.00926,0.497542 -0.037825,1.085861 -0.063473,1.307376 L 8.2709619,48.023941 7.7402436,47.921193 C 7.4483486,47.864682 7.056391,47.817135 6.8692268,47.815533 l -0.3402986,-0.0029 0.058757,-0.297095 c 0.075902,-0.383786 0.056615,-2.781244 -0.02692,-3.346224 -0.047913,-0.324055 -0.1004701,-0.441649 -0.2065061,-0.462048 -0.1285944,-0.02474 -0.1361927,0.01315 -0.079226,0.395072 0.077096,0.51687 0.075096,3.11196 -0.00263,3.4132 -0.054928,0.212882 -0.069583,0.21787 -0.6400694,0.21787 H 5.0484795 l -0.317855,-0.61401 C 4.5558043,46.781699 4.3207463,46.285195 4.2082733,46.016057 L 4.0037772,45.526713 4.2798015,45.116543 C 4.6464457,44.571712 4.8063739,43.994911 4.7771049,43.322957 4.7461563,42.61244 4.6072504,42.656348 4.5517738,43.394184 4.5081591,43.974256 4.2646219,44.627952 3.9454586,45.02164 L 3.7995511,45.201617 3.5343781,44.447255 C 3.3722303,43.985978 3.2266579,43.692893 3.1596944,43.692893 c -0.1405811,0 -0.1446493,-0.03346 0.099325,0.81696 0.2688599,0.937163 0.6505988,1.937099 1.0181397,2.666938 0.2298428,0.456406 0.2691285,0.592895 0.1858486,0.645687 C 4.2621393,47.94981 4.1765886,47.889748 3.856553,47.396687 2.9100373,45.938452 2.5017726,44.537796 2.3672158,42.287139 c -0.047548,-0.795316 -0.039108,-0.912211 0.063038,-0.873014 0.064866,0.02489 0.917177,0.265253 1.8940254,0.534136 0.9768484,0.268884 2.0309171,0.610579 2.3423748,0.759323 1.9225592,0.918161 4.226422,3.408633 5.426914,5.866486 0.219683,0.449774 0.387144,0.848777 0.372135,0.886675 -0.01501,0.0379 -0.383806,-0.102943 -0.819547,-0.312977 z"
     id="path62"
     transform="translate(-1.3669638,-3.1828818)" /><path
     style="opacity:1;fill:#ffffff;fill-opacity:1;fill-rule:evenodd;stroke:none;stroke-width:0;stroke-linecap:round;stroke-linejoin:round;stroke-dasharray:none;stroke-opacity:1"
     d="m 13.378052,50.125116 c -0.09276,-0.07359 -0.213621,-0.276398 -0.268585,-0.450694 -0.439595,-1.393993 -1.285316,-2.805936 -2.797035,-4.669686 -0.143236,-0.176591 -0.140159,-0.189503 0.212519,-0.891727 0.624203,-1.242863 1.410694,-2.334243 2.135441,-2.963263 0.659864,-0.572707 1.314638,-1.05966 1.357858,-1.009834 0.01309,0.01509 0.100013,0.410329 0.193158,0.878299 0.220464,1.107641 0.340508,1.455904 0.802556,2.328325 0.267843,0.505731 0.357963,0.748238 0.299707,0.806493 -0.05825,0.05826 -0.188882,-0.04009 -0.43442,-0.327061 -0.464619,-0.543021 -0.761592,-1.07402 -1.004008,-1.795204 -0.109555,-0.325922 -0.237011,-0.605192 -0.283238,-0.620601 -0.129782,-0.04326 -0.09504,0.374084 0.07123,0.855823 0.08256,0.239192 0.13912,0.445883 0.12569,0.459313 -0.01343,0.01343 -0.188552,-0.163209 -0.389159,-0.392533 -0.273417,-0.312557 -0.387395,-0.394297 -0.455224,-0.326468 -0.133469,0.133469 0.157539,0.560954 0.755406,1.109678 0.274507,0.251943 0.683195,0.698607 0.908196,0.992587 0.382836,0.500201 0.401778,0.545967 0.295122,0.71303 -0.06268,0.09819 -0.218987,0.385944 -0.347341,0.639462 l -0.23337,0.46094 -0.491994,-0.540166 c -0.270597,-0.297091 -0.741596,-0.869942 -1.046666,-1.273002 -0.305069,-0.40306 -0.587821,-0.732837 -0.628337,-0.732837 -0.310907,0 0.603732,1.375886 1.615997,2.430934 l 0.394029,0.410683 -0.130752,0.465996 c -0.07191,0.256298 -0.130751,0.543873 -0.130751,0.639056 0,0.09518 -0.02345,0.17306 -0.0521,0.17306 -0.02866,0 -0.241726,-0.146294 -0.473489,-0.325098 -0.539158,-0.415957 -1.346534,-1.271731 -1.780882,-1.887637 -0.322415,-0.457184 -0.545648,-0.609481 -0.545648,-0.37226 0,0.195704 0.764356,1.284842 1.300745,1.853442 0.288845,0.306191 0.721455,0.708142 0.961357,0.893224 l 0.436184,0.336514 -0.05233,1.038323 c -0.02878,0.571077 -0.07458,1.080704 -0.101775,1.132502 -0.03601,0.0686 -0.09526,0.05783 -0.218097,-0.03961 z"
     id="path63"
     transform="translate(-1.3669638,-3.1828818)" /><path
     style="opacity:1;fill:#ffffff;fill-opacity:1;fill-rule:evenodd;stroke:none;stroke-width:0;stroke-linecap:round;stroke-linejoin:round;stroke-dasharray:none;stroke-opacity:1"
     d=""
     id="path64"
     transform="translate(-1.3669638,-3.1828818)" /><path
     style="opacity:1;fill:#ffffff;fill-opacity:1;fill-rule:evenodd;stroke:none;stroke-width:0;stroke-linecap:round;stroke-linejoin:round;stroke-dasharray:none;stroke-opacity:1"
     d="m 8.3778525,34.007569 c -0.3468659,-0.358391 -0.49491,-0.761798 -0.49491,-1.348586 0,-0.416425 0.038695,-0.563014 0.2269914,-0.859928 0.5830852,-0.91943 1.7535253,-0.833268 2.2883381,0.168456 0.161026,0.301606 0.186168,0.44421 0.163246,0.925907 -0.02288,0.480756 -0.06441,0.622585 -0.266791,0.911094 -0.3241944,0.462158 -0.5205422,0.481084 -0.7067603,0.06813 -0.079518,-0.176339 -0.1931038,-0.320616 -0.2524134,-0.320616 -0.05931,0 -0.1857795,0.160432 -0.2810441,0.356515 -0.098356,0.202446 -0.2281446,0.356515 -0.3003311,0.356515 -0.069918,0 -0.239264,-0.115868 -0.3763256,-0.257483 z"
     id="path66"
     transform="translate(-1.3669638,-3.1828818)" /><path
     style="opacity:1;fill:#ffffff;fill-opacity:1;fill-rule:evenodd;stroke:none;stroke-width:0;stroke-linecap:round;stroke-linejoin:round;stroke-dasharray:none;stroke-opacity:1"
     d="M 5.0296094,37.31725 C 4.5639578,37.084561 4.2977846,36.649049 4.3019255,36.126615 c 0.00933,-1.177566 1.5208237,-1.769754 2.3642765,-0.926301 0.5622399,0.56224 0.4803805,1.51922 -0.1702702,1.990549 -0.096868,0.07017 -0.2017842,0.127583 -0.2331476,0.127583 -0.031363,0 -0.131945,-0.142984 -0.2235146,-0.317743 -0.2304964,-0.439899 -0.2969335,-0.432249 -0.4757428,0.05478 -0.075336,0.205196 -0.1651239,0.378053 -0.1998942,0.38483 -0.034718,0.0068 -0.1850288,-0.04861 -0.3340232,-0.123066 z"
     id="path67"
     transform="translate(-1.3669638,-3.1828818)" /><path
     style="opacity:1;fill:#ffffff;fill-opacity:1;fill-rule:evenodd;stroke:none;stroke-width:0;stroke-linecap:round;stroke-linejoin:round;stroke-dasharray:none;stroke-opacity:1"
     d="m 45.667435,59.056773 c -1.828032,-0.120283 -4.171185,-0.611245 -6.7274,-1.409597 -0.933945,-0.291687 -1.185449,-0.382372 -1.179259,-0.425204 0.0022,-0.01546 0.170666,-0.172723 0.374293,-0.349471 l 0.37023,-0.321359 0.644678,0.240905 c 1.781462,0.6657 3.381878,1.077097 5.09309,1.309214 0.977428,0.132582 3.143528,0.144127 3.966318,0.02114 0.659694,-0.09861 1.632234,-0.331353 2.146599,-0.513713 0.527797,-0.187124 1.283702,-0.520559 1.365457,-0.602313 0.05889,-0.05889 0.05885,-0.07331 -3.54e-4,-0.132518 -0.05936,-0.05936 -0.100181,-0.05135 -0.38342,0.0753 -0.566737,0.253408 -1.357867,0.518221 -1.901135,0.63636 l -0.13148,0.02859 0.13148,-0.112256 c 0.223371,-0.190711 1.155796,-0.807904 1.428561,-0.945595 0.258988,-0.130736 0.341824,-0.260844 0.166074,-0.260844 -0.244359,0 -1.497937,0.708424 -2.06659,1.167875 -0.163193,0.131853 -0.350566,0.257292 -0.416386,0.278754 -0.205996,0.06717 -0.878571,0.131297 -1.675521,0.159758 l -0.766968,0.02739 0.109567,-0.120692 c 0.215098,-0.236938 0.950541,-0.825924 1.443177,-1.155781 0.275496,-0.184465 0.836228,-0.503921 1.24607,-0.709902 0.409842,-0.20598 0.752278,-0.39584 0.760968,-0.42191 0.03833,-0.114998 -0.145587,-0.08032 -0.65026,0.12261 -1.114819,0.44827 -2.059892,1.058855 -3.007364,1.942975 l -0.360802,0.336678 -0.712952,-0.06756 c -0.392124,-0.03716 -1.008783,-0.117624 -1.370353,-0.178818 -0.677964,-0.114742 -1.772671,-0.361558 -1.828502,-0.41226 -0.04553,-0.04134 0.608781,-0.557877 1.241344,-0.979956 0.551435,-0.367946 1.606538,-0.929703 2.16492,-1.152643 0.168732,-0.06737 0.553312,-0.20512 0.85462,-0.306114 0.397848,-0.133353 0.552014,-0.204851 0.5631,-0.261151 0.01872,-0.09509 -0.0893,-0.07918 -0.751845,0.110752 -1.460085,0.418556 -2.946663,1.205657 -4.168248,2.20697 -0.164881,0.13515 -0.325272,0.245728 -0.356425,0.245728 -0.183163,0 -2.386509,-0.808125 -2.386509,-0.875303 0,-0.111028 0.684731,-0.667122 1.39865,-1.135894 0.971157,-0.637677 1.919996,-1.096361 3.049761,-1.474303 0.467114,-0.156264 0.705959,-0.257396 0.715398,-0.302917 0.0192,-0.0926 -0.05568,-0.08722 -0.554062,0.03982 -1.13994,0.290566 -2.383856,0.816254 -3.360686,1.420248 -0.192837,0.119235 -0.356137,0.211397 -0.362888,0.204803 -0.0068,-0.0066 0.06721,-0.176345 0.16435,-0.377226 0.09714,-0.200881 0.176625,-0.406268 0.176625,-0.456415 0,-0.139018 -0.106244,-0.261295 -0.304851,-0.350854 -0.09886,-0.04458 -0.172912,-0.102454 -0.164573,-0.128615 0.02996,-0.09399 0.719153,-0.553569 1.148738,-0.766024 2.041015,-1.009403 4.798141,-1.0035 7.209494,0.01543 1.687664,0.713134 3.852369,2.116287 5.653563,3.664615 l 0.109484,0.09411 -0.139203,0.11565 c -0.07656,0.06361 -0.33929,0.240257 -0.58384,0.392554 -2.225204,1.385771 -4.763949,2.021415 -7.384733,1.848969 z"
     id="path68"
     transform="translate(-1.3669638,-3.1828818)" /><path
     style="opacity:1;fill:#ffffff;fill-opacity:1;fill-rule:evenodd;stroke:none;stroke-width:0;stroke-linecap:round;stroke-linejoin:round;stroke-dasharray:none;stroke-opacity:1"
     d="m 40.44396,60.845712 c -0.31222,-0.27298 -1.072267,-0.927393 -1.688995,-1.454249 l -1.121322,-0.957922 -0.09364,-0.373358 c -0.0515,-0.205347 -0.08701,-0.379992 -0.0789,-0.3881 0.01232,-0.01232 0.683897,0.452916 2.29381,1.589013 0.393082,0.277393 1.637462,1.058847 2.252993,1.414849 0.301308,0.174266 0.563183,0.331401 0.581944,0.349189 0.01876,0.01779 -0.28693,0.08694 -0.679314,0.153677 -0.392383,0.06673 -0.755157,0.130762 -0.806164,0.142283 -0.07052,0.01593 -0.228764,-0.09798 -0.660411,-0.475382 z"
     id="path69"
     transform="translate(-1.3669638,-3.1828818)" /><path
     style="opacity:1;fill:#ffffff;fill-opacity:1;fill-rule:evenodd;stroke:none;stroke-width:0;stroke-linecap:round;stroke-linejoin:round;stroke-dasharray:none;stroke-opacity:1"
     d="m 20.62892,61.112078 c -0.320764,-0.170169 -0.577151,-0.327148 -0.569747,-0.348842 0.0074,-0.02169 0.528418,-0.294051 1.157808,-0.605239 1.923155,-0.950861 3.115092,-1.620865 4.192667,-2.356757 0.259737,-0.177378 0.481986,-0.322506 0.493886,-0.322506 0.02542,0 0.014,0.06028 -0.116262,0.613574 -0.09343,0.396833 -0.108243,0.425601 -0.316026,0.613574 -0.611636,0.553325 -1.628176,1.27787 -2.593702,1.848678 -0.561729,0.332087 -1.567356,0.868954 -1.625415,0.867748 -0.022,-4.57e-4 -0.302444,-0.14006 -0.623209,-0.31023 z"
     id="path70"
     transform="translate(-1.3669638,-3.1828818)" /><path
     style="opacity:1;fill:#ffffff;fill-opacity:1;fill-rule:evenodd;stroke:none;stroke-width:0;stroke-linecap:round;stroke-linejoin:round;stroke-dasharray:none;stroke-opacity:1"
     d="m 39.016731,53.377782 c -0.06629,-0.03596 -0.120523,-0.08597 -0.120523,-0.111128 0,-0.02516 0.119562,-0.280257 0.265693,-0.566884 0.314644,-0.617154 0.332498,-0.786705 0.09933,-0.943274 l -0.138984,-0.09333 0.432207,-0.430585 0.432206,-0.430585 0.515518,-0.103935 c 0.923189,-0.186126 1.669864,-0.492988 2.428536,-0.998056 0.712935,-0.47462 1.288027,-1.074272 1.030274,-1.074272 -0.03462,0 -0.187466,0.109195 -0.339657,0.242655 -0.57634,0.505406 -1.408797,1.004224 -2.127143,1.274609 -0.24552,0.09241 -1.069457,0.321863 -1.160082,0.323059 -0.01666,2.2e-4 0.09593,-0.166965 0.250214,-0.371522 0.330024,-0.437571 0.69736,-1.04996 0.91095,-1.518653 0.13787,-0.302535 0.168733,-0.339839 0.321613,-0.388725 0.335998,-0.107441 0.680197,-0.324324 0.911911,-0.574603 0.236565,-0.255518 0.488769,-0.705645 0.43978,-0.784909 -0.05535,-0.08956 -0.134818,-0.03521 -0.240384,0.164387 -0.159912,0.302352 -0.548848,0.677876 -0.847676,0.818445 -0.14085,0.06625 -0.265493,0.111062 -0.276986,0.09957 -0.01149,-0.01149 0.01841,-0.148159 0.06646,-0.303704 0.105209,-0.340627 0.313227,-1.333288 0.313227,-1.494715 0,-0.143822 -0.121388,-0.157526 -0.149569,-0.01689 -0.182952,0.913042 -0.345411,1.44 -0.64158,2.081056 -0.42519,0.920323 -1.147892,1.938646 -2.000114,2.818261 L 38.84983,51.5536 38.591349,51.439359 38.332868,51.325117 38.749272,50.891283 c 1.132129,-1.179517 1.930718,-2.42811 2.72533,-4.261051 0.288396,-0.665247 0.791118,-1.997161 0.85818,-2.273667 l 0.03093,-0.127539 0.264418,0.25902 c 0.696269,0.682055 1.401092,1.775893 1.806799,2.804031 0.164896,0.417876 0.333468,1.123453 0.440921,1.845522 0.126579,0.850589 0.202244,2.418197 0.122559,2.539123 -0.02106,0.03197 -0.358069,0.05815 -0.974474,0.0757 -0.51825,0.01476 -1.10005,0.05452 -1.292888,0.08835 -0.192837,0.03383 -0.355162,0.05767 -0.360723,0.05297 -0.0056,-0.0047 0.152494,-0.137812 0.35123,-0.295819 0.480764,-0.382235 1.258555,-1.124872 1.258555,-1.20167 0,-0.115147 -0.109551,-0.06099 -0.416354,0.205809 -1.043428,0.907391 -1.755081,1.411222 -2.256801,1.597754 -0.592618,0.220325 -1.144584,0.522443 -1.65088,0.903606 -0.250761,0.188785 -0.470079,0.342455 -0.487373,0.34149 -0.01729,-9.65e-4 -0.08568,-0.03118 -0.151968,-0.06714 z"
     id="path71"
     transform="translate(-1.3669638,-3.1828818)" /><path
     style="opacity:1;fill:#ffffff;fill-opacity:1;fill-rule:evenodd;stroke:none;stroke-width:0;stroke-linecap:round;stroke-linejoin:round;stroke-dasharray:none;stroke-opacity:1"
     d="M 47.420504,52.23018 C 46.966228,52.072928 45.86188,51.825583 45.612652,51.825268 l -0.142437,-1.8e-4 v -0.547834 c 0,-0.301308 0.0077,-0.547833 0.01707,-0.547833 0.0094,0 0.181957,-0.03098 0.383484,-0.06884 0.818059,-0.153703 1.621898,-0.431436 2.369066,-0.818531 0.403143,-0.208863 0.505211,-0.296923 0.449197,-0.387555 -0.04374,-0.07077 -0.146107,-0.04328 -0.498414,0.133852 -0.618552,0.311002 -1.748238,0.652123 -2.530986,0.764259 l -0.183109,0.02623 -0.02249,-0.230104 c -0.01237,-0.126557 -0.04519,-0.45345 -0.07292,-0.726428 -0.02774,-0.272979 -0.04,-0.506756 -0.02725,-0.519504 0.01275,-0.01275 0.18713,-0.05105 0.387514,-0.08512 0.75127,-0.127725 1.723942,-0.455269 2.40653,-0.81039 0.348237,-0.181173 0.409696,-0.243259 0.344779,-0.348297 -0.03026,-0.04895 -0.09777,-0.03303 -0.357516,0.08431 -0.601282,0.27164 -1.097194,0.449348 -1.607285,0.575963 -0.499949,0.124098 -1.220278,0.246117 -1.253979,0.212417 -0.0094,-0.0094 -0.05615,-0.204074 -0.103927,-0.432641 -0.04777,-0.228568 -0.09931,-0.46501 -0.114514,-0.525427 -0.02239,-0.08894 -0.0043,-0.123663 0.09494,-0.182405 0.155608,-0.09209 0.608673,-0.526256 0.807795,-0.774095 0.145232,-0.180763 0.169569,-0.192776 0.51033,-0.25191 0.442449,-0.07678 0.849478,-0.22717 1.170315,-0.432407 0.238098,-0.152309 0.327593,-0.259963 0.266719,-0.320837 -0.01638,-0.01638 -0.181523,0.05182 -0.366984,0.151548 -0.335812,0.18058 -0.652236,0.2886 -1.004434,0.342892 l -0.185137,0.02854 0.173341,-0.369899 c 0.1659,-0.354022 0.34937,-0.988658 0.350019,-1.210741 1.69e-4,-0.05782 0.08705,-0.264897 0.193068,-0.46018 0.168441,-0.310261 0.328809,-0.660453 0.473683,-1.034373 l 0.04245,-0.109567 0.172426,0.192974 c 0.590131,0.660457 1.154523,1.922942 1.392978,3.115943 0.222322,1.112285 0.312433,2.630814 0.226157,3.811144 l -0.05273,0.721362 -0.424026,0.440885 c -0.233215,0.242486 -0.532195,0.603214 -0.6644,0.801616 -0.138529,0.207893 -0.268512,0.35799 -0.306787,0.35426 -0.03653,-0.0036 -0.263634,-0.07474 -0.504681,-0.158183 z"
     id="path72"
     transform="translate(-1.3669638,-3.1828818)" /><path
     style="opacity:1;fill:#ffffff;fill-opacity:1;fill-rule:evenodd;stroke:none;stroke-width:0;stroke-linecap:round;stroke-linejoin:round;stroke-dasharray:none;stroke-opacity:1"
     d="m 52.855005,55.366599 c -0.183736,-0.146664 -0.318064,-0.282209 -0.298507,-0.30121 0.01956,-0.019 0.21589,-0.112492 0.436295,-0.207757 1.064516,-0.460112 2.030187,-1.177452 3.531509,-2.623349 1.007297,-0.970111 1.842772,-1.668055 2.773652,-2.317071 0.280943,-0.195875 0.415943,-0.317385 0.415943,-0.374382 0,-0.04641 -0.023,-0.08438 -0.0511,-0.08438 -0.134885,0 -1.326916,0.811998 -2.041621,1.39073 -0.247073,0.200068 -0.449224,0.344285 -0.449224,0.320484 0,-0.114159 0.28569,-0.804314 0.502576,-1.214096 0.133363,-0.251975 0.242478,-0.476769 0.242478,-0.499541 0,-0.02277 -0.03526,-0.0414 -0.07836,-0.0414 -0.07982,0 -0.312679,0.322857 -0.568973,0.788881 -0.141765,0.257775 -0.358464,0.828399 -0.468913,1.234773 -0.06339,0.233229 -0.103634,0.282947 -0.648036,0.800606 -0.695628,0.661457 -1.581608,1.362658 -1.602919,1.268618 -0.0295,-0.130161 0.175086,-1.356259 0.321849,-1.92889 0.08346,-0.325637 0.260451,-0.880943 0.393313,-1.234012 0.260167,-0.691367 0.285927,-0.813466 0.16679,-0.790522 -0.04733,0.0091 -0.150779,0.184714 -0.28185,0.478441 -0.448193,1.004386 -0.72876,1.997338 -0.849801,3.007525 -0.03979,0.332122 -0.07989,0.644455 -0.08909,0.694072 -0.01121,0.06042 -0.172737,0.183178 -0.489146,0.371733 -0.461761,0.275173 -1.371332,0.698365 -1.502569,0.699094 -0.03628,2.02e-4 -0.213782,-0.104953 -0.39444,-0.233677 l -0.328469,-0.234044 0.01147,-0.212656 c 0.02985,-0.55337 0.382568,-1.9356 0.732912,-2.872166 0.126745,-0.338824 0.185658,-0.552737 0.159446,-0.578949 -0.07517,-0.07517 -0.146173,0.01895 -0.366208,0.485429 -0.298792,0.63344 -0.620968,1.621937 -0.763418,2.342316 l -0.119111,0.60235 -0.11242,-0.07568 c -0.12333,-0.08302 -1.145063,-0.692198 -1.350765,-0.805351 -0.154093,-0.08476 -0.186024,-0.247244 -0.186024,-0.946572 0,-0.410383 -0.0078,-0.455775 -0.07603,-0.442635 -0.09627,0.01854 -0.137225,0.237453 -0.140578,0.751448 -0.0014,0.212925 -0.01892,0.380562 -0.03895,0.372527 -0.278618,-0.111753 -0.796286,-0.364691 -0.796286,-0.389074 0,-0.06439 0.351968,-0.555165 0.633168,-0.882883 0.992902,-1.157155 2.928793,-2.272559 4.92186,-2.835831 1.850053,-0.522854 3.960219,-0.567645 6.212445,-0.131866 0.265152,0.0513 0.496824,0.106777 0.514827,0.123275 0.018,0.0165 -0.06443,0.104097 -0.183193,0.194664 -0.320124,0.24413 -0.74366,0.710257 -1.045524,1.150663 -1.281287,1.869338 -3.433806,3.764502 -5.934137,5.224651 l -0.380807,0.222385 z"
     id="path73"
     transform="translate(-1.3669638,-3.1828818)" /><path
     style="opacity:1;fill:#ffffff;fill-opacity:1;fill-rule:evenodd;stroke:none;stroke-width:0;stroke-linecap:round;stroke-linejoin:round;stroke-dasharray:none;stroke-opacity:1"
     d="m 51.185211,49.247312 c 0.149366,-1.320217 0.931793,-3.00897 1.963201,-4.237278 1.468024,-1.748276 3.43297,-2.900593 6.916098,-4.055856 1.129215,-0.374531 1.394313,-0.44283 1.334586,-0.343838 -0.02019,0.03347 -0.09926,0.15946 -0.175716,0.279983 -0.37973,0.598634 -0.613726,1.187095 -0.893923,2.248068 -0.415124,1.571881 -0.761779,2.43272 -1.353756,3.361752 -0.3671,0.576115 -0.751081,1.040686 -1.084937,1.312643 l -0.244758,0.199378 h -0.580265 -0.580265 l 0.347988,-0.36157 c 0.880035,-0.914382 1.464723,-1.757239 2.179607,-3.142012 0.497443,-0.963579 0.759773,-1.420207 1.217584,-2.119408 0.227759,-0.347849 0.252018,-0.484931 0.08146,-0.460283 -0.115806,0.01673 -0.73272,0.913575 -1.209337,1.758077 -0.227452,0.403015 -0.350467,0.582256 -0.368091,0.53633 -0.076,-0.198062 -0.118775,-1.041113 -0.07464,-1.471197 0.03134,-0.305409 0.03213,-0.468654 0.0024,-0.498383 -0.08287,-0.08287 -0.138565,0.0449 -0.201107,0.461419 -0.07941,0.528882 -0.07819,1.046112 0.0038,1.589826 l 0.06548,0.434423 -0.116855,0.201064 c -0.42889,0.73796 -1.633564,2.309197 -1.69291,2.208035 -0.104143,-0.177523 -0.166729,-1.58164 -0.105599,-2.369131 0.03085,-0.397472 0.02652,-0.453038 -0.03729,-0.477523 -0.03972,-0.01524 -0.08767,-0.0027 -0.106571,0.02789 -0.127885,0.206921 -0.1745,2.005602 -0.07093,2.736839 l 0.05539,0.391107 -0.257057,0.241343 c -0.374847,0.351932 -0.381186,0.354849 -0.966708,0.44473 -0.295324,0.04533 -0.63177,0.103674 -0.747656,0.129645 -0.115886,0.02597 -0.229141,0.03582 -0.251677,0.0219 -0.08871,-0.05483 -0.02054,-1.356024 0.119313,-2.277227 0.09675,-0.637259 0.09709,-0.695547 0.0042,-0.71417 -0.05054,-0.01013 -0.09182,0.02477 -0.121429,0.102641 -0.10872,0.285956 -0.27014,1.383725 -0.319082,2.169984 l -0.05267,0.846119 -0.460181,0.137278 c -0.581504,0.173471 -1.160939,0.406091 -1.770071,0.710612 l -0.477182,0.238555 z"
     id="path74"
     transform="translate(-1.3669638,-3.1828818)" /><path
     style="opacity:1;fill:#ffffff;fill-opacity:1;fill-rule:evenodd;stroke:none;stroke-width:0;stroke-linecap:round;stroke-linejoin:round;stroke-dasharray:none;stroke-opacity:1"
     d="m 49.719877,46.7551 c -0.0015,-0.159802 -0.08749,-0.696515 -0.150581,-0.939454 -0.02768,-0.106582 -0.0069,-0.127359 0.291245,-0.291888 0.759972,-0.419315 1.392422,-0.963627 1.88863,-1.62543 0.373027,-0.497514 0.494328,-0.712902 0.456705,-0.810947 -0.05284,-0.137708 -0.14367,-0.06824 -0.416881,0.318856 -0.329395,0.466697 -0.956811,1.085909 -1.410188,1.391748 -0.319766,0.215709 -0.835732,0.496923 -0.911741,0.496923 -0.02074,0 -0.112677,-0.197962 -0.204307,-0.439916 l -0.1666,-0.439917 0.200142,-0.425661 c 0.171215,-0.364138 0.41963,-1.091724 0.427572,-1.252315 0.0014,-0.02743 0.136252,-0.113641 0.299768,-0.19157 0.163516,-0.07793 0.387272,-0.220886 0.497236,-0.31768 0.216277,-0.190374 0.515331,-0.608446 0.515331,-0.720422 0,-0.125282 -0.164794,-0.07471 -0.260343,0.07989 -0.153497,0.248363 -0.611289,0.620551 -0.860455,0.699556 -0.08922,0.02829 -0.09082,0.01708 -0.08808,-0.618128 0.0031,-0.722741 -0.02378,-0.887987 -0.144522,-0.887987 -0.07426,0 -0.08275,0.05908 -0.105556,0.734097 -0.03103,0.918668 -0.194781,1.61304 -0.543714,2.305608 l -0.107255,0.212883 -0.192987,-0.329681 -0.192988,-0.329679 0.169641,-0.367187 c 0.250688,-0.542613 0.40962,-1.131168 0.459098,-1.700121 0.06389,-0.734702 0.07195,-1.120554 0.03201,-1.532743 -0.02446,-0.252444 -0.03933,-0.46413 -0.03305,-0.470415 0.02486,-0.02486 1.07927,0.698193 1.429551,0.980301 0.887189,0.714522 1.483298,1.403489 2.065313,2.387036 0.286742,0.484567 0.696153,1.309231 0.696153,1.402241 0,0.02364 -0.143389,0.204675 -0.318642,0.402305 -0.175254,0.197629 -0.411493,0.480538 -0.524977,0.628687 -0.269436,0.351738 -0.519135,0.568344 -1.106669,0.960001 -0.427585,0.285032 -1.318697,0.750245 -1.588719,0.829404 -0.08993,0.02637 -0.09874,0.01419 -0.100139,-0.138394 z"
     id="path75"
     transform="translate(-1.3669638,-3.1828818)" /><path
     style="opacity:1;fill:#ffffff;fill-opacity:1;fill-rule:evenodd;stroke:none;stroke-width:0;stroke-linecap:round;stroke-linejoin:round;stroke-dasharray:none;stroke-opacity:1"
     d="m 52.631502,34.258097 c -0.39062,-0.283286 -0.670439,-0.74899 -0.762084,-1.268338 -0.119319,-0.676178 0.240223,-1.396563 0.852125,-1.707333 0.183823,-0.09336 0.258733,-0.106943 0.488193,-0.08852 0.311306,0.02499 0.673348,0.175849 0.900369,0.375176 0.426789,0.374726 0.638792,1.257198 0.452628,1.884082 -0.037,0.124578 -0.151635,0.350031 -0.254753,0.501005 -0.150657,0.220575 -0.212775,0.276731 -0.316218,0.285863 -0.114976,0.01015 -0.153754,-0.02406 -0.362911,-0.32017 -0.153139,-0.216803 -0.258804,-0.326792 -0.305335,-0.317831 -0.04784,0.0092 -0.102573,0.126793 -0.167032,0.358823 -0.129073,0.464621 -0.221799,0.517123 -0.524982,0.297247 z"
     id="path77"
     transform="translate(-1.3669638,-3.1828818)" /><path
     style="opacity:1;fill:#ffffff;fill-opacity:1;fill-rule:evenodd;stroke:none;stroke-width:0;stroke-linecap:round;stroke-linejoin:round;stroke-dasharray:none;stroke-opacity:1"
     d="m 57.403157,37.374355 c -0.01595,-0.04156 -0.08009,-0.213991 -0.142541,-0.383169 -0.06939,-0.187992 -0.14144,-0.312969 -0.185289,-0.321414 -0.04897,-0.0094 -0.130234,0.08463 -0.255988,0.296306 -0.101333,0.170568 -0.202357,0.321319 -0.224497,0.335003 -0.02214,0.01368 -0.113362,-0.02919 -0.202713,-0.09526 -0.668072,-0.494067 -0.768654,-1.432477 -0.214566,-2.001861 0.282146,-0.289936 0.550069,-0.400418 0.972471,-0.401014 0.292665,-4.12e-4 0.391488,0.01925 0.597922,0.118972 0.678227,0.327628 0.982265,1.09958 0.686503,1.743028 -0.154589,0.336317 -0.306429,0.497332 -0.613867,0.650961 -0.308112,0.153966 -0.377077,0.163622 -0.417435,0.05845 z"
     id="path78"
     transform="translate(-1.3669638,-3.1828818)" /><g
     id="g31"
     transform="translate(-0.79989823,5.447857)"
     style="fill:#e92322;fill-opacity:1"><rect
       style="fill:#e92322;fill-opacity:1;fill-rule:evenodd;stroke:none;stroke-width:0;stroke-linecap:round;stroke-linejoin:round;stroke-dasharray:none;stroke-opacity:1"
       id="rect30-3"
       height="44.563"
       x="18.764778"
       y="-0.79373741"
       ry="0.20219555"
       width="1.5" /><rect
       style="fill:#e92322;fill-opacity:1;fill-rule:evenodd;stroke:none;stroke-width:0;stroke-linecap:round;stroke-linejoin:round;stroke-dasharray:none;stroke-opacity:1"
       id="rect30"
       width="1.5"
       height="39.099998"
       x="24.626364"
       y="3.5062623"
       ry="0.20219555" /><rect
       style="fill:#e92322;fill-opacity:1;fill-rule:evenodd;stroke:none;stroke-width:0;stroke-linecap:round;stroke-linejoin:round;stroke-dasharray:none;stroke-opacity:1"
       id="rect30-4"
       width="1.5"
       height="40.063"
       x="30.487946"
       y="-0.79373741"
       ry="0.20219555" /><rect
       style="fill:#e92322;fill-opacity:1;fill-rule:evenodd;stroke:none;stroke-width:0;stroke-linecap:round;stroke-linejoin:round;stroke-dasharray:none;stroke-opacity:1"
       id="rect30-9"
       width="1.5"
       height="44.162998"
       x="42.211113"
       y="-0.79373741"
       ry="0.20219555" /><rect
       style="fill:#e92322;fill-opacity:1;fill-rule:evenodd;stroke:none;stroke-width:0;stroke-linecap:round;stroke-linejoin:round;stroke-dasharray:none;stroke-opacity:1"
       id="rect30-7"
       width="1.5"
       height="39.040001"
       x="36.349537"
       y="3.5062623"
       ry="0.20219555" /></g><path
     d="m 10.17067,23.652895 c 0.09023,0.135399 0.03666,0.333175 -0.10517,0.437567 -0.0099,0.01193 -0.04065,0.02687 -0.06147,0.02978 C 9.0568838,24.485112 8.0522998,24.297756 7.3710649,23.631776 6.426041,22.92865 6.2873499,21.541984 7.0669472,20.513308 v 0 l 0.049592,-0.05979 c 1.0066826,-0.880688 2.4426816,-0.880473 3.3023998,0.01429 0.567209,0.470478 0.863652,1.200797 0.837782,1.986723 -0.05456,0.176773 -0.205314,0.31413 -0.382835,0.32836 l -0.856822,-0.165715 c -0.1586694,-0.03068 -0.2380164,0.06498 -0.1785314,0.215238 l 0.3321334,0.820481 z m 1.708279,-0.514382 c 0.04863,-0.302805 -0.01927,-0.567363 -0.05494,-0.879532 0.01002,-0.900001 -0.353854,-1.726615 -0.998403,-2.281434 -1.0580382,-1.099632 -2.8500632,-1.092388 -4.097757,0.01227 -1.0215968,1.231639 -0.9285653,2.984127 0.1949439,3.916034 0.018179,0.01508 0.036363,0.03016 0.054541,0.04524 0.7129709,0.672116 1.7215109,0.943496 2.7390299,0.737889 0.02181,0.01809 0.04363,0.03619 0.06545,0.05428 0.3451182,-0.01651 0.6872672,-0.09603 1.0155412,-0.247616 0.583594,4.7072 0.362281,8.627089 -0.66793,13.204493 0.590851,1.345414 1.075469,0.270095 1.31766,-0.06186 0.655167,-4.451119 0.835055,-9.379568 0.431872,-14.499768 z"
     style="fill:#e92322;stroke-width:1.48382"
     id="path1"
     sodipodi:nodetypes="ccccccccccccccscccccccccccs" /><path
     d="m 50.126793,22.380593 c -0.09023,0.135399 -0.03666,0.333175 0.10517,0.437567 0.0099,0.01193 0.04065,0.02687 0.06147,0.02978 0.947146,0.36487 1.95173,0.177514 2.632965,-0.488466 0.945024,-0.703126 1.083715,-2.089792 0.304117,-3.118468 v 0 l -0.04959,-0.05979 c -1.006682,-0.880688 -2.442681,-0.880473 -3.302399,0.01429 -0.567209,0.470478 -0.863652,1.200797 -0.837782,1.986723 0.05456,0.176773 0.205314,0.31413 0.382835,0.32836 l 0.856822,-0.165715 c 0.158669,-0.03068 0.238016,0.06498 0.178531,0.215238 l -0.332133,0.820481 z m -1.708279,-0.514382 c -0.04863,-0.302805 0.01927,-0.567363 0.05494,-0.879532 -0.01002,-0.900001 0.353854,-1.726615 0.998403,-2.281434 1.058038,-1.099632 2.850063,-1.092388 4.097757,0.01227 1.021596,1.231639 0.928565,2.984127 -0.194944,3.916034 -0.01818,0.01508 -0.03636,0.03016 -0.05454,0.04524 -0.712971,0.672116 -1.721511,0.943496 -2.73903,0.737889 -0.02181,0.01809 -0.04363,0.03619 -0.06545,0.05428 -0.345118,-0.01651 -0.687267,-0.09603 -1.015541,-0.247616 -0.583594,4.7072 -0.362281,8.627089 0.66793,13.204493 -0.590851,1.345414 -1.075469,0.270095 -1.31766,-0.06186 -0.655168,-4.451119 -0.835056,-9.379568 -0.431873,-14.499768 z"
     style="fill:#e92322;stroke-width:1.48382"
     id="path1-7"
     sodipodi:nodetypes="ccccccccccccccscccccccccccs" /><rect
     style="fill:#e92322;fill-opacity:1;fill-rule:evenodd;stroke:#ffc0a2;stroke-width:0;stroke-linecap:round;stroke-linejoin:round;stroke-dasharray:none;stroke-opacity:1"
     id="rect81"
     width="37.536774"
     height="3.0382247"
     x="11.297971"
     y="24.419628"
     ry="0.20219555" /></g></g>
</svg>
